solid ASCII
  facet normal 1.000000e+00 0.000000e+00 0.000000e+00
    outer loop
      vertex   2.633707e+01 1.085000e+01 -1.900000e+00
      vertex   2.633707e+01 1.085000e+01 -1.710000e+01
      vertex   2.633707e+01 1.185000e+01 -1.900000e+00
    endloop
  endfacet
  facet normal 1.000000e+00 0.000000e+00 0.000000e+00
    outer loop
      vertex   2.633707e+01 1.185000e+01 -1.900000e+00
      vertex   2.633707e+01 1.085000e+01 -1.710000e+01
      vertex   2.633707e+01 1.185000e+01 -1.710000e+01
    endloop
  endfacet
  facet normal -1.000000e+00 0.000000e+00 0.000000e+00
    outer loop
      vertex   -1.746293e+01 1.085000e+01 -1.900000e+00
      vertex   -1.746293e+01 1.185000e+01 -1.900000e+00
      vertex   -1.746293e+01 1.085000e+01 -1.710000e+01
    endloop
  endfacet
  facet normal -1.000000e+00 0.000000e+00 0.000000e+00
    outer loop
      vertex   -1.746293e+01 1.085000e+01 -1.710000e+01
      vertex   -1.746293e+01 1.185000e+01 -1.900000e+00
      vertex   -1.746293e+01 1.185000e+01 -1.710000e+01
    endloop
  endfacet
  facet normal 0.000000e+00 0.000000e+00 -1.000000e+00
    outer loop
      vertex   2.633707e+01 1.085000e+01 -1.710000e+01
      vertex   -1.746293e+01 1.085000e+01 -1.710000e+01
      vertex   2.633707e+01 1.185000e+01 -1.710000e+01
    endloop
  endfacet
  facet normal -0.000000e+00 0.000000e+00 -1.000000e+00
    outer loop
      vertex   2.633707e+01 1.185000e+01 -1.710000e+01
      vertex   -1.746293e+01 1.085000e+01 -1.710000e+01
      vertex   -1.746293e+01 1.185000e+01 -1.710000e+01
    endloop
  endfacet
  facet normal -1.000000e+00 0.000000e+00 0.000000e+00
    outer loop
      vertex   -3.756293e+01 1.085000e+01 -1.900000e+00
      vertex   -3.756293e+01 1.085000e+01 2.590000e+01
      vertex   -3.756293e+01 1.185000e+01 -1.900000e+00
    endloop
  endfacet
  facet normal -1.000000e+00 0.000000e+00 0.000000e+00
    outer loop
      vertex   -3.756293e+01 1.185000e+01 -1.900000e+00
      vertex   -3.756293e+01 1.085000e+01 2.590000e+01
      vertex   -3.756293e+01 1.185000e+01 2.590000e+01
    endloop
  endfacet
  facet normal -0.000000e+00 -2.220446e-15 -1.000000e+00
    outer loop
      vertex   -1.746293e+01 1.085000e+01 -1.900000e+00
      vertex   -3.756293e+01 1.085000e+01 -1.900000e+00
      vertex   -1.746293e+01 1.185000e+01 -1.900000e+00
    endloop
  endfacet
  facet normal -0.000000e+00 -2.220446e-15 -1.000000e+00
    outer loop
      vertex   -1.746293e+01 1.185000e+01 -1.900000e+00
      vertex   -3.756293e+01 1.085000e+01 -1.900000e+00
      vertex   -3.756293e+01 1.185000e+01 -1.900000e+00
    endloop
  endfacet
  facet normal 0.000000e+00 0.000000e+00 1.000000e+00
    outer loop
      vertex   -3.756293e+01 1.085000e+01 2.590000e+01
      vertex   -1.746293e+01 1.085000e+01 2.590000e+01
      vertex   -3.756293e+01 1.185000e+01 2.590000e+01
    endloop
  endfacet
  facet normal -0.000000e+00 0.000000e+00 1.000000e+00
    outer loop
      vertex   -3.756293e+01 1.185000e+01 2.590000e+01
      vertex   -1.746293e+01 1.085000e+01 2.590000e+01
      vertex   -1.746293e+01 1.185000e+01 2.590000e+01
    endloop
  endfacet
  facet normal 0.000000e+00 0.000000e+00 1.000000e+00
    outer loop
      vertex   -1.746293e+01 1.085000e+01 4.300000e+01
      vertex   2.633707e+01 1.085000e+01 4.300000e+01
      vertex   -1.746293e+01 1.185000e+01 4.300000e+01
    endloop
  endfacet
  facet normal -0.000000e+00 0.000000e+00 1.000000e+00
    outer loop
      vertex   -1.746293e+01 1.185000e+01 4.300000e+01
      vertex   2.633707e+01 1.085000e+01 4.300000e+01
      vertex   2.633707e+01 1.185000e+01 4.300000e+01
    endloop
  endfacet
  facet normal -1.000000e+00 0.000000e+00 0.000000e+00
    outer loop
      vertex   -1.746293e+01 1.085000e+01 2.590000e+01
      vertex   -1.746293e+01 1.085000e+01 4.300000e+01
      vertex   -1.746293e+01 1.185000e+01 2.590000e+01
    endloop
  endfacet
  facet normal -1.000000e+00 0.000000e+00 0.000000e+00
    outer loop
      vertex   -1.746293e+01 1.185000e+01 2.590000e+01
      vertex   -1.746293e+01 1.085000e+01 4.300000e+01
      vertex   -1.746293e+01 1.185000e+01 4.300000e+01
    endloop
  endfacet
  facet normal 1.000000e+00 0.000000e+00 -0.000000e+00
    outer loop
      vertex   2.633707e+01 1.185000e+01 2.590000e+01
      vertex   2.633707e+01 1.185000e+01 4.300000e+01
      vertex   2.633707e+01 1.085000e+01 2.590000e+01
    endloop
  endfacet
  facet normal 1.000000e+00 0.000000e+00 0.000000e+00
    outer loop
      vertex   2.633707e+01 1.085000e+01 2.590000e+01
      vertex   2.633707e+01 1.185000e+01 4.300000e+01
      vertex   2.633707e+01 1.085000e+01 4.300000e+01
    endloop
  endfacet
  facet normal -0.000000e+00 -2.220446e-15 -1.000000e+00
    outer loop
      vertex   4.643707e+01 1.085000e+01 -1.900000e+00
      vertex   2.633707e+01 1.085000e+01 -1.900000e+00
      vertex   4.643707e+01 1.185000e+01 -1.900000e+00
    endloop
  endfacet
  facet normal -0.000000e+00 -2.220446e-15 -1.000000e+00
    outer loop
      vertex   4.643707e+01 1.185000e+01 -1.900000e+00
      vertex   2.633707e+01 1.085000e+01 -1.900000e+00
      vertex   2.633707e+01 1.185000e+01 -1.900000e+00
    endloop
  endfacet
  facet normal 1.000000e+00 -0.000000e+00 0.000000e+00
    outer loop
      vertex   4.643707e+01 1.085000e+01 2.590000e+01
      vertex   4.643707e+01 1.085000e+01 -1.900000e+00
      vertex   4.643707e+01 1.185000e+01 2.590000e+01
    endloop
  endfacet
  facet normal 1.000000e+00 0.000000e+00 0.000000e+00
    outer loop
      vertex   4.643707e+01 1.185000e+01 2.590000e+01
      vertex   4.643707e+01 1.085000e+01 -1.900000e+00
      vertex   4.643707e+01 1.185000e+01 -1.900000e+00
    endloop
  endfacet
  facet normal 0.000000e+00 0.000000e+00 1.000000e+00
    outer loop
      vertex   2.633707e+01 1.085000e+01 2.590000e+01
      vertex   4.643707e+01 1.085000e+01 2.590000e+01
      vertex   2.633707e+01 1.185000e+01 2.590000e+01
    endloop
  endfacet
  facet normal -0.000000e+00 0.000000e+00 1.000000e+00
    outer loop
      vertex   2.633707e+01 1.185000e+01 2.590000e+01
      vertex   4.643707e+01 1.085000e+01 2.590000e+01
      vertex   4.643707e+01 1.185000e+01 2.590000e+01
    endloop
  endfacet
  facet normal 0.000000e+00 1.000000e+00 0.000000e+00
    outer loop
      vertex   4.643707e+01 1.185000e+01 2.590000e+01
      vertex   4.643707e+01 1.185000e+01 -1.900000e+00
      vertex   2.633707e+01 1.185000e+01 2.590000e+01
    endloop
  endfacet
  facet normal 0.000000e+00 1.000000e+00 0.000000e+00
    outer loop
      vertex   2.633707e+01 1.185000e+01 2.590000e+01
      vertex   4.643707e+01 1.185000e+01 -1.900000e+00
      vertex   2.633707e+01 1.185000e+01 -1.900000e+00
    endloop
  endfacet
  facet normal 0.000000e+00 1.000000e+00 0.000000e+00
    outer loop
      vertex   2.633707e+01 1.185000e+01 2.590000e+01
      vertex   2.633707e+01 1.185000e+01 -1.900000e+00
      vertex   -1.746293e+01 1.185000e+01 2.590000e+01
    endloop
  endfacet
  facet normal 0.000000e+00 1.000000e+00 0.000000e+00
    outer loop
      vertex   -1.746293e+01 1.185000e+01 2.590000e+01
      vertex   2.633707e+01 1.185000e+01 -1.900000e+00
      vertex   -1.746293e+01 1.185000e+01 -1.900000e+00
    endloop
  endfacet
  facet normal 0.000000e+00 1.000000e+00 0.000000e+00
    outer loop
      vertex   -1.746293e+01 1.185000e+01 2.590000e+01
      vertex   -1.746293e+01 1.185000e+01 -1.900000e+00
      vertex   -3.756293e+01 1.185000e+01 2.590000e+01
    endloop
  endfacet
  facet normal 0.000000e+00 1.000000e+00 0.000000e+00
    outer loop
      vertex   -3.756293e+01 1.185000e+01 2.590000e+01
      vertex   -1.746293e+01 1.185000e+01 -1.900000e+00
      vertex   -3.756293e+01 1.185000e+01 -1.900000e+00
    endloop
  endfacet
  facet normal 0.000000e+00 1.000000e+00 0.000000e+00
    outer loop
      vertex   2.633707e+01 1.185000e+01 -1.900000e+00
      vertex   2.633707e+01 1.185000e+01 -1.710000e+01
      vertex   -1.746293e+01 1.185000e+01 -1.900000e+00
    endloop
  endfacet
  facet normal 0.000000e+00 1.000000e+00 0.000000e+00
    outer loop
      vertex   -1.746293e+01 1.185000e+01 -1.900000e+00
      vertex   2.633707e+01 1.185000e+01 -1.710000e+01
      vertex   -1.746293e+01 1.185000e+01 -1.710000e+01
    endloop
  endfacet
  facet normal 0.000000e+00 1.000000e+00 0.000000e+00
    outer loop
      vertex   -1.746293e+01 1.185000e+01 2.590000e+01
      vertex   -1.746293e+01 1.185000e+01 4.300000e+01
      vertex   2.633707e+01 1.185000e+01 2.590000e+01
    endloop
  endfacet
  facet normal 0.000000e+00 1.000000e+00 -0.000000e+00
    outer loop
      vertex   2.633707e+01 1.185000e+01 2.590000e+01
      vertex   -1.746293e+01 1.185000e+01 4.300000e+01
      vertex   2.633707e+01 1.185000e+01 4.300000e+01
    endloop
  endfacet
  facet normal -0.000000e+00 -1.000000e+00 -0.000000e+00
    outer loop
      vertex   4.643707e+01 1.085000e+01 2.590000e+01
      vertex   2.633707e+01 1.085000e+01 2.590000e+01
      vertex   4.643707e+01 1.085000e+01 -1.900000e+00
    endloop
  endfacet
  facet normal 0.000000e+00 -1.000000e+00 0.000000e+00
    outer loop
      vertex   4.643707e+01 1.085000e+01 -1.900000e+00
      vertex   2.633707e+01 1.085000e+01 2.590000e+01
      vertex   2.633707e+01 1.085000e+01 -1.900000e+00
    endloop
  endfacet
  facet normal 0.000000e+00 -1.000000e+00 0.000000e+00
    outer loop
      vertex   2.633707e+01 1.085000e+01 -1.900000e+00
      vertex   2.633707e+01 1.085000e+01 2.590000e+01
      vertex   -1.746293e+01 1.085000e+01 2.590000e+01
    endloop
  endfacet
  facet normal 0.000000e+00 -1.000000e+00 0.000000e+00
    outer loop
      vertex   2.633707e+01 1.085000e+01 -1.900000e+00
      vertex   -1.746293e+01 1.085000e+01 2.590000e+01
      vertex   -1.746293e+01 1.085000e+01 -1.900000e+00
    endloop
  endfacet
  facet normal 0.000000e+00 -1.000000e+00 0.000000e+00
    outer loop
      vertex   -1.746293e+01 1.085000e+01 -1.900000e+00
      vertex   -1.746293e+01 1.085000e+01 2.590000e+01
      vertex   -3.756293e+01 1.085000e+01 2.590000e+01
    endloop
  endfacet
  facet normal 0.000000e+00 -1.000000e+00 0.000000e+00
    outer loop
      vertex   -1.746293e+01 1.085000e+01 -1.900000e+00
      vertex   -3.756293e+01 1.085000e+01 2.590000e+01
      vertex   -3.756293e+01 1.085000e+01 -1.900000e+00
    endloop
  endfacet
  facet normal -0.000000e+00 -1.000000e+00 -0.000000e+00
    outer loop
      vertex   2.633707e+01 1.085000e+01 4.300000e+01
      vertex   -1.746293e+01 1.085000e+01 4.300000e+01
      vertex   2.633707e+01 1.085000e+01 2.590000e+01
    endloop
  endfacet
  facet normal 0.000000e+00 -1.000000e+00 0.000000e+00
    outer loop
      vertex   2.633707e+01 1.085000e+01 2.590000e+01
      vertex   -1.746293e+01 1.085000e+01 4.300000e+01
      vertex   -1.746293e+01 1.085000e+01 2.590000e+01
    endloop
  endfacet
  facet normal 0.000000e+00 -1.000000e+00 0.000000e+00
    outer loop
      vertex   -1.746293e+01 1.085000e+01 -1.710000e+01
      vertex   2.633707e+01 1.085000e+01 -1.710000e+01
      vertex   -1.746293e+01 1.085000e+01 -1.900000e+00
    endloop
  endfacet
  facet normal 0.000000e+00 -1.000000e+00 0.000000e+00
    outer loop
      vertex   -1.746293e+01 1.085000e+01 -1.900000e+00
      vertex   2.633707e+01 1.085000e+01 -1.710000e+01
      vertex   2.633707e+01 1.085000e+01 -1.900000e+00
    endloop
  endfacet
endsolid
