solid ASCII
  facet normal -1.000000e+00 0.000000e+00 0.000000e+00
    outer loop
      vertex   6.421576e+01 1.525000e+01 8.000000e+01
      vertex   6.421576e+01 6.750000e+00 8.000000e+01
      vertex   6.421576e+01 1.525000e+01 8.400000e+01
    endloop
  endfacet
  facet normal -1.000000e+00 -0.000000e+00 0.000000e+00
    outer loop
      vertex   6.421576e+01 1.525000e+01 8.400000e+01
      vertex   6.421576e+01 6.750000e+00 8.000000e+01
      vertex   6.421576e+01 6.750000e+00 8.400000e+01
    endloop
  endfacet
  facet normal 0.000000e+00 1.000000e+00 -0.000000e+00
    outer loop
      vertex   6.421576e+01 6.750000e+00 8.000000e+01
      vertex   5.996576e+01 6.750000e+00 8.000000e+01
      vertex   6.421576e+01 6.750000e+00 8.400000e+01
    endloop
  endfacet
  facet normal 0.000000e+00 1.000000e+00 0.000000e+00
    outer loop
      vertex   6.421576e+01 6.750000e+00 8.400000e+01
      vertex   5.996576e+01 6.750000e+00 8.000000e+01
      vertex   5.996576e+01 6.750000e+00 8.400000e+01
    endloop
  endfacet
  facet normal 1.000000e+00 0.000000e+00 0.000000e+00
    outer loop
      vertex   5.996576e+01 6.750000e+00 8.000000e+01
      vertex   5.996576e+01 1.525000e+01 8.000000e+01
      vertex   5.996576e+01 6.750000e+00 8.400000e+01
    endloop
  endfacet
  facet normal 1.000000e+00 -0.000000e+00 0.000000e+00
    outer loop
      vertex   5.996576e+01 6.750000e+00 8.400000e+01
      vertex   5.996576e+01 1.525000e+01 8.000000e+01
      vertex   5.996576e+01 1.525000e+01 8.400000e+01
    endloop
  endfacet
  facet normal 0.000000e+00 -1.000000e+00 0.000000e+00
    outer loop
      vertex   5.996576e+01 1.525000e+01 8.000000e+01
      vertex   6.421576e+01 1.525000e+01 8.000000e+01
      vertex   5.996576e+01 1.525000e+01 8.400000e+01
    endloop
  endfacet
  facet normal 0.000000e+00 -1.000000e+00 0.000000e+00
    outer loop
      vertex   5.996576e+01 1.525000e+01 8.400000e+01
      vertex   6.421576e+01 1.525000e+01 8.000000e+01
      vertex   6.421576e+01 1.525000e+01 8.400000e+01
    endloop
  endfacet
  facet normal 0.000000e+00 0.000000e+00 -1.000000e+00
    outer loop
      vertex   5.996576e+01 1.525000e+01 8.400000e+01
      vertex   6.421576e+01 1.525000e+01 8.400000e+01
      vertex   5.996576e+01 6.750000e+00 8.400000e+01
    endloop
  endfacet
  facet normal 0.000000e+00 0.000000e+00 -1.000000e+00
    outer loop
      vertex   5.996576e+01 6.750000e+00 8.400000e+01
      vertex   6.421576e+01 1.525000e+01 8.400000e+01
      vertex   6.421576e+01 6.750000e+00 8.400000e+01
    endloop
  endfacet
  facet normal 1.000000e+00 0.000000e+00 -0.000000e+00
    outer loop
      vertex   6.910000e+01 2.500000e+01 8.000000e+01
      vertex   6.910000e+01 2.500000e+01 9.000000e+01
      vertex   6.910000e+01 -3.000000e+00 8.000000e+01
    endloop
  endfacet
  facet normal 1.000000e+00 0.000000e+00 0.000000e+00
    outer loop
      vertex   6.910000e+01 -3.000000e+00 8.000000e+01
      vertex   6.910000e+01 2.500000e+01 9.000000e+01
      vertex   6.910000e+01 -3.000000e+00 9.000000e+01
    endloop
  endfacet
  facet normal 2.553005e-16 -1.000000e+00 3.441184e-16
    outer loop
      vertex   4.996576e+01 -3.000000e+00 9.000000e+01
      vertex   5.996576e+01 -3.000000e+00 8.000000e+01
      vertex   6.910000e+01 -3.000000e+00 9.000000e+01
    endloop
  endfacet
  facet normal 6.320351e-16 -1.000000e+00 0.000000e+00
    outer loop
      vertex   6.910000e+01 -3.000000e+00 9.000000e+01
      vertex   5.996576e+01 -3.000000e+00 8.000000e+01
      vertex   6.910000e+01 -3.000000e+00 8.000000e+01
    endloop
  endfacet
  facet normal 0.000000e+00 0.000000e+00 1.000000e+00
    outer loop
      vertex   4.996576e+01 -3.000000e+00 9.000000e+01
      vertex   6.910000e+01 -3.000000e+00 9.000000e+01
      vertex   4.996576e+01 2.500000e+01 9.000000e+01
    endloop
  endfacet
  facet normal -0.000000e+00 0.000000e+00 1.000000e+00
    outer loop
      vertex   4.996576e+01 2.500000e+01 9.000000e+01
      vertex   6.910000e+01 -3.000000e+00 9.000000e+01
      vertex   6.910000e+01 2.500000e+01 9.000000e+01
    endloop
  endfacet
  facet normal -0.000000e+00 1.000000e+00 0.000000e+00
    outer loop
      vertex   4.996576e+01 2.500000e+01 9.000000e+01
      vertex   6.910000e+01 2.500000e+01 9.000000e+01
      vertex   5.996576e+01 2.500000e+01 8.000000e+01
    endloop
  endfacet
  facet normal 0.000000e+00 1.000000e+00 0.000000e+00
    outer loop
      vertex   5.996576e+01 2.500000e+01 8.000000e+01
      vertex   6.910000e+01 2.500000e+01 9.000000e+01
      vertex   6.910000e+01 2.500000e+01 8.000000e+01
    endloop
  endfacet
  facet normal 0.000000e+00 0.000000e+00 -1.000000e+00
    outer loop
      vertex   5.996576e+01 1.525000e+01 8.000000e+01
      vertex   5.996576e+01 2.500000e+01 8.000000e+01
      vertex   6.421576e+01 1.525000e+01 8.000000e+01
    endloop
  endfacet
  facet normal 0.000000e+00 0.000000e+00 -1.000000e+00
    outer loop
      vertex   6.421576e+01 1.525000e+01 8.000000e+01
      vertex   5.996576e+01 2.500000e+01 8.000000e+01
      vertex   6.910000e+01 2.500000e+01 8.000000e+01
    endloop
  endfacet
  facet normal 0.000000e+00 0.000000e+00 -1.000000e+00
    outer loop
      vertex   6.421576e+01 1.525000e+01 8.000000e+01
      vertex   6.910000e+01 2.500000e+01 8.000000e+01
      vertex   6.421576e+01 6.750000e+00 8.000000e+01
    endloop
  endfacet
  facet normal 0.000000e+00 0.000000e+00 -1.000000e+00
    outer loop
      vertex   6.421576e+01 6.750000e+00 8.000000e+01
      vertex   6.910000e+01 2.500000e+01 8.000000e+01
      vertex   6.910000e+01 -3.000000e+00 8.000000e+01
    endloop
  endfacet
  facet normal 0.000000e+00 -0.000000e+00 -1.000000e+00
    outer loop
      vertex   6.421576e+01 6.750000e+00 8.000000e+01
      vertex   6.910000e+01 -3.000000e+00 8.000000e+01
      vertex   5.996576e+01 -3.000000e+00 8.000000e+01
    endloop
  endfacet
  facet normal 0.000000e+00 0.000000e+00 -1.000000e+00
    outer loop
      vertex   5.996576e+01 -3.000000e+00 8.000000e+01
      vertex   5.996576e+01 6.750000e+00 8.000000e+01
      vertex   6.421576e+01 6.750000e+00 8.000000e+01
    endloop
  endfacet
  facet normal -7.071068e-01 -0.000000e+00 -7.071068e-01
    outer loop
      vertex   5.996576e+01 2.500000e+01 8.000000e+01
      vertex   5.996576e+01 1.525000e+01 8.000000e+01
      vertex   4.996576e+01 2.500000e+01 9.000000e+01
    endloop
  endfacet
  facet normal -7.071068e-01 -0.000000e+00 -7.071068e-01
    outer loop
      vertex   4.996576e+01 2.500000e+01 9.000000e+01
      vertex   5.996576e+01 1.525000e+01 8.000000e+01
      vertex   4.996576e+01 -3.000000e+00 9.000000e+01
    endloop
  endfacet
  facet normal -7.071068e-01 0.000000e+00 -7.071068e-01
    outer loop
      vertex   4.996576e+01 -3.000000e+00 9.000000e+01
      vertex   5.996576e+01 1.525000e+01 8.000000e+01
      vertex   5.996576e+01 6.750000e+00 8.000000e+01
    endloop
  endfacet
  facet normal -7.071068e-01 0.000000e+00 -7.071068e-01
    outer loop
      vertex   4.996576e+01 -3.000000e+00 9.000000e+01
      vertex   5.996576e+01 6.750000e+00 8.000000e+01
      vertex   5.996576e+01 -3.000000e+00 8.000000e+01
    endloop
  endfacet
endsolid
