solid ASCII
  facet normal 9.970658e-01 -0.000000e+00 7.654925e-02
    outer loop
      vertex   -3.213301e+01 -4.000000e+00 7.477866e+01
      vertex   -3.213301e+01 -3.000000e+00 7.477866e+01
      vertex   -3.215000e+01 -4.000000e+00 7.500000e+01
    endloop
  endfacet
  facet normal 9.970658e-01 -0.000000e+00 7.654925e-02
    outer loop
      vertex   -3.215000e+01 -4.000000e+00 7.500000e+01
      vertex   -3.213301e+01 -3.000000e+00 7.477866e+01
      vertex   -3.215000e+01 -3.000000e+00 7.500000e+01
    endloop
  endfacet
  facet normal 9.970658e-01 0.000000e+00 -7.654925e-02
    outer loop
      vertex   -3.215000e+01 -4.000000e+00 7.500000e+01
      vertex   -3.215000e+01 -3.000000e+00 7.500000e+01
      vertex   -3.213301e+01 -4.000000e+00 7.522134e+01
    endloop
  endfacet
  facet normal 9.970658e-01 0.000000e+00 -7.654925e-02
    outer loop
      vertex   -3.213301e+01 -4.000000e+00 7.522134e+01
      vertex   -3.215000e+01 -3.000000e+00 7.500000e+01
      vertex   -3.213301e+01 -3.000000e+00 7.522134e+01
    endloop
  endfacet
  facet normal 9.736954e-01 0.000000e+00 -2.278535e-01
    outer loop
      vertex   -3.213301e+01 -4.000000e+00 7.522134e+01
      vertex   -3.213301e+01 -3.000000e+00 7.522134e+01
      vertex   -3.208242e+01 -4.000000e+00 7.543749e+01
    endloop
  endfacet
  facet normal 9.736954e-01 0.000000e+00 -2.278535e-01
    outer loop
      vertex   -3.208242e+01 -4.000000e+00 7.543749e+01
      vertex   -3.213301e+01 -3.000000e+00 7.522134e+01
      vertex   -3.208242e+01 -3.000000e+00 7.543749e+01
    endloop
  endfacet
  facet normal 9.275025e-01 0.000000e+00 -3.738171e-01
    outer loop
      vertex   -3.208242e+01 -4.000000e+00 7.543749e+01
      vertex   -3.208242e+01 -3.000000e+00 7.543749e+01
      vertex   -3.199944e+01 -4.000000e+00 7.564339e+01
    endloop
  endfacet
  facet normal 9.275025e-01 0.000000e+00 -3.738171e-01
    outer loop
      vertex   -3.199944e+01 -4.000000e+00 7.564339e+01
      vertex   -3.208242e+01 -3.000000e+00 7.543749e+01
      vertex   -3.199944e+01 -3.000000e+00 7.564339e+01
    endloop
  endfacet
  facet normal 8.595696e-01 0.000000e+00 -5.110187e-01
    outer loop
      vertex   -3.199944e+01 -4.000000e+00 7.564339e+01
      vertex   -3.199944e+01 -3.000000e+00 7.564339e+01
      vertex   -3.188600e+01 -4.000000e+00 7.583421e+01
    endloop
  endfacet
  facet normal 8.595696e-01 0.000000e+00 -5.110187e-01
    outer loop
      vertex   -3.188600e+01 -4.000000e+00 7.583421e+01
      vertex   -3.199944e+01 -3.000000e+00 7.564339e+01
      vertex   -3.188600e+01 -3.000000e+00 7.583421e+01
    endloop
  endfacet
  facet normal 7.714892e-01 0.000000e+00 -6.362424e-01
    outer loop
      vertex   -3.188600e+01 -4.000000e+00 7.583421e+01
      vertex   -3.188600e+01 -3.000000e+00 7.583421e+01
      vertex   -3.174476e+01 -4.000000e+00 7.600548e+01
    endloop
  endfacet
  facet normal 7.714892e-01 0.000000e+00 -6.362424e-01
    outer loop
      vertex   -3.174476e+01 -4.000000e+00 7.600548e+01
      vertex   -3.188600e+01 -3.000000e+00 7.583421e+01
      vertex   -3.174476e+01 -3.000000e+00 7.600548e+01
    endloop
  endfacet
  facet normal 6.653257e-01 0.000000e+00 -7.465532e-01
    outer loop
      vertex   -3.174476e+01 -4.000000e+00 7.600548e+01
      vertex   -3.174476e+01 -3.000000e+00 7.600548e+01
      vertex   -3.157903e+01 -4.000000e+00 7.615317e+01
    endloop
  endfacet
  facet normal 6.653257e-01 0.000000e+00 -7.465532e-01
    outer loop
      vertex   -3.157903e+01 -4.000000e+00 7.615317e+01
      vertex   -3.174476e+01 -3.000000e+00 7.600548e+01
      vertex   -3.157903e+01 -3.000000e+00 7.615317e+01
    endloop
  endfacet
  facet normal 5.435676e-01 0.000000e+00 -8.393654e-01
    outer loop
      vertex   -3.157903e+01 -4.000000e+00 7.615317e+01
      vertex   -3.157903e+01 -3.000000e+00 7.615317e+01
      vertex   -3.139269e+01 -4.000000e+00 7.627384e+01
    endloop
  endfacet
  facet normal 5.435676e-01 0.000000e+00 -8.393654e-01
    outer loop
      vertex   -3.139269e+01 -4.000000e+00 7.627384e+01
      vertex   -3.157903e+01 -3.000000e+00 7.615317e+01
      vertex   -3.139269e+01 -3.000000e+00 7.627384e+01
    endloop
  endfacet
  facet normal 4.090686e-01 0.000000e+00 -9.125036e-01
    outer loop
      vertex   -3.139269e+01 -4.000000e+00 7.627384e+01
      vertex   -3.139269e+01 -3.000000e+00 7.627384e+01
      vertex   -3.119012e+01 -4.000000e+00 7.636465e+01
    endloop
  endfacet
  facet normal 4.090686e-01 0.000000e+00 -9.125036e-01
    outer loop
      vertex   -3.119012e+01 -4.000000e+00 7.636465e+01
      vertex   -3.139269e+01 -3.000000e+00 7.627384e+01
      vertex   -3.119012e+01 -3.000000e+00 7.636465e+01
    endloop
  endfacet
  facet normal 2.649815e-01 0.000000e+00 -9.642535e-01
    outer loop
      vertex   -3.119012e+01 -4.000000e+00 7.636465e+01
      vertex   -3.119012e+01 -3.000000e+00 7.636465e+01
      vertex   -3.097607e+01 -4.000000e+00 7.642348e+01
    endloop
  endfacet
  facet normal 2.649815e-01 0.000000e+00 -9.642535e-01
    outer loop
      vertex   -3.097607e+01 -4.000000e+00 7.642348e+01
      vertex   -3.119012e+01 -3.000000e+00 7.636465e+01
      vertex   -3.097607e+01 -3.000000e+00 7.642348e+01
    endloop
  endfacet
  facet normal 1.146834e-01 0.000000e+00 -9.934021e-01
    outer loop
      vertex   -3.097607e+01 -4.000000e+00 7.642348e+01
      vertex   -3.097607e+01 -3.000000e+00 7.642348e+01
      vertex   -3.075554e+01 -4.000000e+00 7.644894e+01
    endloop
  endfacet
  facet normal 1.146834e-01 0.000000e+00 -9.934021e-01
    outer loop
      vertex   -3.075554e+01 -4.000000e+00 7.644894e+01
      vertex   -3.097607e+01 -3.000000e+00 7.642348e+01
      vertex   -3.075554e+01 -3.000000e+00 7.644894e+01
    endloop
  endfacet
  facet normal -3.830273e-02 0.000000e+00 -9.992662e-01
    outer loop
      vertex   -3.075554e+01 -4.000000e+00 7.644894e+01
      vertex   -3.075554e+01 -3.000000e+00 7.644894e+01
      vertex   -3.053371e+01 -4.000000e+00 7.644043e+01
    endloop
  endfacet
  facet normal -3.830273e-02 0.000000e+00 -9.992662e-01
    outer loop
      vertex   -3.053371e+01 -4.000000e+00 7.644043e+01
      vertex   -3.075554e+01 -3.000000e+00 7.644894e+01
      vertex   -3.053371e+01 -3.000000e+00 7.644043e+01
    endloop
  endfacet
  facet normal -1.903911e-01 0.000000e+00 -9.817083e-01
    outer loop
      vertex   -3.053371e+01 -4.000000e+00 7.644043e+01
      vertex   -3.053371e+01 -3.000000e+00 7.644043e+01
      vertex   -3.031578e+01 -4.000000e+00 7.639817e+01
    endloop
  endfacet
  facet normal -1.903911e-01 0.000000e+00 -9.817083e-01
    outer loop
      vertex   -3.031578e+01 -4.000000e+00 7.639817e+01
      vertex   -3.053371e+01 -3.000000e+00 7.644043e+01
      vertex   -3.031578e+01 -3.000000e+00 7.639817e+01
    endloop
  endfacet
  facet normal -3.380169e-01 0.000000e+00 -9.411400e-01
    outer loop
      vertex   -3.031578e+01 -4.000000e+00 7.639817e+01
      vertex   -3.031578e+01 -3.000000e+00 7.639817e+01
      vertex   -3.010685e+01 -4.000000e+00 7.632313e+01
    endloop
  endfacet
  facet normal -3.380169e-01 0.000000e+00 -9.411400e-01
    outer loop
      vertex   -3.010685e+01 -4.000000e+00 7.632313e+01
      vertex   -3.031578e+01 -3.000000e+00 7.639817e+01
      vertex   -3.010685e+01 -3.000000e+00 7.632313e+01
    endloop
  endfacet
  facet normal -4.777198e-01 0.000000e+00 -8.785123e-01
    outer loop
      vertex   -3.010685e+01 -4.000000e+00 7.632313e+01
      vertex   -3.010685e+01 -3.000000e+00 7.632313e+01
      vertex   -2.991183e+01 -4.000000e+00 7.621708e+01
    endloop
  endfacet
  facet normal -4.777198e-01 0.000000e+00 -8.785123e-01
    outer loop
      vertex   -2.991183e+01 -4.000000e+00 7.621708e+01
      vertex   -3.010685e+01 -3.000000e+00 7.632313e+01
      vertex   -2.991183e+01 -3.000000e+00 7.621708e+01
    endloop
  endfacet
  facet normal -6.062254e-01 0.000000e+00 -7.952929e-01
    outer loop
      vertex   -2.991183e+01 -4.000000e+00 7.621708e+01
      vertex   -2.991183e+01 -3.000000e+00 7.621708e+01
      vertex   -2.973528e+01 -4.000000e+00 7.608250e+01
    endloop
  endfacet
  facet normal -6.062254e-01 0.000000e+00 -7.952929e-01
    outer loop
      vertex   -2.973528e+01 -4.000000e+00 7.608250e+01
      vertex   -2.991183e+01 -3.000000e+00 7.621708e+01
      vertex   -2.973528e+01 -3.000000e+00 7.608250e+01
    endloop
  endfacet
  facet normal -7.205216e-01 0.000000e+00 -6.934325e-01
    outer loop
      vertex   -2.973528e+01 -4.000000e+00 7.608250e+01
      vertex   -2.973528e+01 -3.000000e+00 7.608250e+01
      vertex   -2.958134e+01 -4.000000e+00 7.592255e+01
    endloop
  endfacet
  facet normal -7.205216e-01 0.000000e+00 -6.934325e-01
    outer loop
      vertex   -2.958134e+01 -4.000000e+00 7.592255e+01
      vertex   -2.973528e+01 -3.000000e+00 7.608250e+01
      vertex   -2.958134e+01 -3.000000e+00 7.592255e+01
    endloop
  endfacet
  facet normal -8.179294e-01 0.000000e+00 -5.753187e-01
    outer loop
      vertex   -2.958134e+01 -4.000000e+00 7.592255e+01
      vertex   -2.958134e+01 -3.000000e+00 7.592255e+01
      vertex   -2.945362e+01 -4.000000e+00 7.574098e+01
    endloop
  endfacet
  facet normal -8.179294e-01 0.000000e+00 -5.753187e-01
    outer loop
      vertex   -2.945362e+01 -4.000000e+00 7.574098e+01
      vertex   -2.958134e+01 -3.000000e+00 7.592255e+01
      vertex   -2.945362e+01 -3.000000e+00 7.574098e+01
    endloop
  endfacet
  facet normal -8.961656e-01 0.000000e+00 -4.437198e-01
    outer loop
      vertex   -2.945362e+01 -4.000000e+00 7.574098e+01
      vertex   -2.945362e+01 -3.000000e+00 7.574098e+01
      vertex   -2.935512e+01 -4.000000e+00 7.554203e+01
    endloop
  endfacet
  facet normal -8.961656e-01 0.000000e+00 -4.437198e-01
    outer loop
      vertex   -2.935512e+01 -4.000000e+00 7.554203e+01
      vertex   -2.945362e+01 -3.000000e+00 7.574098e+01
      vertex   -2.935512e+01 -3.000000e+00 7.554203e+01
    endloop
  endfacet
  facet normal -9.533964e-01 0.000000e+00 -3.017206e-01
    outer loop
      vertex   -2.935512e+01 -4.000000e+00 7.554203e+01
      vertex   -2.935512e+01 -3.000000e+00 7.554203e+01
      vertex   -2.928814e+01 -4.000000e+00 7.533039e+01
    endloop
  endfacet
  facet normal -9.533964e-01 0.000000e+00 -3.017206e-01
    outer loop
      vertex   -2.928814e+01 -4.000000e+00 7.533039e+01
      vertex   -2.935512e+01 -3.000000e+00 7.554203e+01
      vertex   -2.928814e+01 -3.000000e+00 7.533039e+01
    endloop
  endfacet
  facet normal -9.882804e-01 0.000000e+00 -1.526493e-01
    outer loop
      vertex   -2.928814e+01 -4.000000e+00 7.533039e+01
      vertex   -2.928814e+01 -3.000000e+00 7.533039e+01
      vertex   -2.925425e+01 -4.000000e+00 7.511100e+01
    endloop
  endfacet
  facet normal -9.882804e-01 0.000000e+00 -1.526493e-01
    outer loop
      vertex   -2.925425e+01 -4.000000e+00 7.511100e+01
      vertex   -2.928814e+01 -3.000000e+00 7.533039e+01
      vertex   -2.925425e+01 -3.000000e+00 7.511100e+01
    endloop
  endfacet
  facet normal -1.000000e+00 0.000000e+00 0.000000e+00
    outer loop
      vertex   -2.925425e+01 -4.000000e+00 7.511100e+01
      vertex   -2.925425e+01 -3.000000e+00 7.511100e+01
      vertex   -2.925425e+01 -4.000000e+00 7.488900e+01
    endloop
  endfacet
  facet normal -1.000000e+00 0.000000e+00 0.000000e+00
    outer loop
      vertex   -2.925425e+01 -4.000000e+00 7.488900e+01
      vertex   -2.925425e+01 -3.000000e+00 7.511100e+01
      vertex   -2.925425e+01 -3.000000e+00 7.488900e+01
    endloop
  endfacet
  facet normal -9.882804e-01 0.000000e+00 1.526493e-01
    outer loop
      vertex   -2.925425e+01 -4.000000e+00 7.488900e+01
      vertex   -2.925425e+01 -3.000000e+00 7.488900e+01
      vertex   -2.928814e+01 -4.000000e+00 7.466961e+01
    endloop
  endfacet
  facet normal -9.882804e-01 0.000000e+00 1.526493e-01
    outer loop
      vertex   -2.928814e+01 -4.000000e+00 7.466961e+01
      vertex   -2.925425e+01 -3.000000e+00 7.488900e+01
      vertex   -2.928814e+01 -3.000000e+00 7.466961e+01
    endloop
  endfacet
  facet normal -9.533964e-01 0.000000e+00 3.017206e-01
    outer loop
      vertex   -2.928814e+01 -4.000000e+00 7.466961e+01
      vertex   -2.928814e+01 -3.000000e+00 7.466961e+01
      vertex   -2.935512e+01 -4.000000e+00 7.445797e+01
    endloop
  endfacet
  facet normal -9.533964e-01 0.000000e+00 3.017206e-01
    outer loop
      vertex   -2.935512e+01 -4.000000e+00 7.445797e+01
      vertex   -2.928814e+01 -3.000000e+00 7.466961e+01
      vertex   -2.935512e+01 -3.000000e+00 7.445797e+01
    endloop
  endfacet
  facet normal -8.961656e-01 0.000000e+00 4.437198e-01
    outer loop
      vertex   -2.935512e+01 -4.000000e+00 7.445797e+01
      vertex   -2.935512e+01 -3.000000e+00 7.445797e+01
      vertex   -2.945362e+01 -4.000000e+00 7.425902e+01
    endloop
  endfacet
  facet normal -8.961656e-01 0.000000e+00 4.437198e-01
    outer loop
      vertex   -2.945362e+01 -4.000000e+00 7.425902e+01
      vertex   -2.935512e+01 -3.000000e+00 7.445797e+01
      vertex   -2.945362e+01 -3.000000e+00 7.425902e+01
    endloop
  endfacet
  facet normal -8.179294e-01 0.000000e+00 5.753187e-01
    outer loop
      vertex   -2.945362e+01 -4.000000e+00 7.425902e+01
      vertex   -2.945362e+01 -3.000000e+00 7.425902e+01
      vertex   -2.958134e+01 -4.000000e+00 7.407745e+01
    endloop
  endfacet
  facet normal -8.179294e-01 0.000000e+00 5.753187e-01
    outer loop
      vertex   -2.958134e+01 -4.000000e+00 7.407745e+01
      vertex   -2.945362e+01 -3.000000e+00 7.425902e+01
      vertex   -2.958134e+01 -3.000000e+00 7.407745e+01
    endloop
  endfacet
  facet normal -7.205216e-01 0.000000e+00 6.934325e-01
    outer loop
      vertex   -2.958134e+01 -4.000000e+00 7.407745e+01
      vertex   -2.958134e+01 -3.000000e+00 7.407745e+01
      vertex   -2.973528e+01 -4.000000e+00 7.391750e+01
    endloop
  endfacet
  facet normal -7.205216e-01 0.000000e+00 6.934325e-01
    outer loop
      vertex   -2.973528e+01 -4.000000e+00 7.391750e+01
      vertex   -2.958134e+01 -3.000000e+00 7.407745e+01
      vertex   -2.973528e+01 -3.000000e+00 7.391750e+01
    endloop
  endfacet
  facet normal -6.062254e-01 0.000000e+00 7.952929e-01
    outer loop
      vertex   -2.973528e+01 -4.000000e+00 7.391750e+01
      vertex   -2.973528e+01 -3.000000e+00 7.391750e+01
      vertex   -2.991183e+01 -4.000000e+00 7.378292e+01
    endloop
  endfacet
  facet normal -6.062254e-01 0.000000e+00 7.952929e-01
    outer loop
      vertex   -2.991183e+01 -4.000000e+00 7.378292e+01
      vertex   -2.973528e+01 -3.000000e+00 7.391750e+01
      vertex   -2.991183e+01 -3.000000e+00 7.378292e+01
    endloop
  endfacet
  facet normal -4.777198e-01 0.000000e+00 8.785123e-01
    outer loop
      vertex   -2.991183e+01 -4.000000e+00 7.378292e+01
      vertex   -2.991183e+01 -3.000000e+00 7.378292e+01
      vertex   -3.010685e+01 -4.000000e+00 7.367687e+01
    endloop
  endfacet
  facet normal -4.777198e-01 0.000000e+00 8.785123e-01
    outer loop
      vertex   -3.010685e+01 -4.000000e+00 7.367687e+01
      vertex   -2.991183e+01 -3.000000e+00 7.378292e+01
      vertex   -3.010685e+01 -3.000000e+00 7.367687e+01
    endloop
  endfacet
  facet normal -3.380169e-01 0.000000e+00 9.411400e-01
    outer loop
      vertex   -3.010685e+01 -4.000000e+00 7.367687e+01
      vertex   -3.010685e+01 -3.000000e+00 7.367687e+01
      vertex   -3.031578e+01 -4.000000e+00 7.360183e+01
    endloop
  endfacet
  facet normal -3.380169e-01 0.000000e+00 9.411400e-01
    outer loop
      vertex   -3.031578e+01 -4.000000e+00 7.360183e+01
      vertex   -3.010685e+01 -3.000000e+00 7.367687e+01
      vertex   -3.031578e+01 -3.000000e+00 7.360183e+01
    endloop
  endfacet
  facet normal -1.903911e-01 0.000000e+00 9.817083e-01
    outer loop
      vertex   -3.031578e+01 -4.000000e+00 7.360183e+01
      vertex   -3.031578e+01 -3.000000e+00 7.360183e+01
      vertex   -3.053371e+01 -4.000000e+00 7.355957e+01
    endloop
  endfacet
  facet normal -1.903911e-01 0.000000e+00 9.817083e-01
    outer loop
      vertex   -3.053371e+01 -4.000000e+00 7.355957e+01
      vertex   -3.031578e+01 -3.000000e+00 7.360183e+01
      vertex   -3.053371e+01 -3.000000e+00 7.355957e+01
    endloop
  endfacet
  facet normal -3.830273e-02 0.000000e+00 9.992662e-01
    outer loop
      vertex   -3.053371e+01 -4.000000e+00 7.355957e+01
      vertex   -3.053371e+01 -3.000000e+00 7.355957e+01
      vertex   -3.075554e+01 -4.000000e+00 7.355106e+01
    endloop
  endfacet
  facet normal -3.830273e-02 0.000000e+00 9.992662e-01
    outer loop
      vertex   -3.075554e+01 -4.000000e+00 7.355106e+01
      vertex   -3.053371e+01 -3.000000e+00 7.355957e+01
      vertex   -3.075554e+01 -3.000000e+00 7.355106e+01
    endloop
  endfacet
  facet normal 1.146834e-01 -0.000000e+00 9.934021e-01
    outer loop
      vertex   -3.075554e+01 -4.000000e+00 7.355106e+01
      vertex   -3.075554e+01 -3.000000e+00 7.355106e+01
      vertex   -3.097607e+01 -4.000000e+00 7.357652e+01
    endloop
  endfacet
  facet normal 1.146834e-01 -0.000000e+00 9.934021e-01
    outer loop
      vertex   -3.097607e+01 -4.000000e+00 7.357652e+01
      vertex   -3.075554e+01 -3.000000e+00 7.355106e+01
      vertex   -3.097607e+01 -3.000000e+00 7.357652e+01
    endloop
  endfacet
  facet normal 2.649815e-01 -0.000000e+00 9.642535e-01
    outer loop
      vertex   -3.097607e+01 -4.000000e+00 7.357652e+01
      vertex   -3.097607e+01 -3.000000e+00 7.357652e+01
      vertex   -3.119012e+01 -4.000000e+00 7.363535e+01
    endloop
  endfacet
  facet normal 2.649815e-01 -0.000000e+00 9.642535e-01
    outer loop
      vertex   -3.119012e+01 -4.000000e+00 7.363535e+01
      vertex   -3.097607e+01 -3.000000e+00 7.357652e+01
      vertex   -3.119012e+01 -3.000000e+00 7.363535e+01
    endloop
  endfacet
  facet normal 4.090686e-01 -0.000000e+00 9.125036e-01
    outer loop
      vertex   -3.119012e+01 -4.000000e+00 7.363535e+01
      vertex   -3.119012e+01 -3.000000e+00 7.363535e+01
      vertex   -3.139269e+01 -4.000000e+00 7.372616e+01
    endloop
  endfacet
  facet normal 4.090686e-01 -0.000000e+00 9.125036e-01
    outer loop
      vertex   -3.139269e+01 -4.000000e+00 7.372616e+01
      vertex   -3.119012e+01 -3.000000e+00 7.363535e+01
      vertex   -3.139269e+01 -3.000000e+00 7.372616e+01
    endloop
  endfacet
  facet normal 5.435676e-01 -0.000000e+00 8.393654e-01
    outer loop
      vertex   -3.139269e+01 -4.000000e+00 7.372616e+01
      vertex   -3.139269e+01 -3.000000e+00 7.372616e+01
      vertex   -3.157903e+01 -4.000000e+00 7.384683e+01
    endloop
  endfacet
  facet normal 5.435676e-01 -0.000000e+00 8.393654e-01
    outer loop
      vertex   -3.157903e+01 -4.000000e+00 7.384683e+01
      vertex   -3.139269e+01 -3.000000e+00 7.372616e+01
      vertex   -3.157903e+01 -3.000000e+00 7.384683e+01
    endloop
  endfacet
  facet normal 6.653257e-01 -0.000000e+00 7.465532e-01
    outer loop
      vertex   -3.157903e+01 -4.000000e+00 7.384683e+01
      vertex   -3.157903e+01 -3.000000e+00 7.384683e+01
      vertex   -3.174476e+01 -4.000000e+00 7.399452e+01
    endloop
  endfacet
  facet normal 6.653257e-01 -0.000000e+00 7.465532e-01
    outer loop
      vertex   -3.174476e+01 -4.000000e+00 7.399452e+01
      vertex   -3.157903e+01 -3.000000e+00 7.384683e+01
      vertex   -3.174476e+01 -3.000000e+00 7.399452e+01
    endloop
  endfacet
  facet normal 7.714892e-01 -0.000000e+00 6.362424e-01
    outer loop
      vertex   -3.174476e+01 -4.000000e+00 7.399452e+01
      vertex   -3.174476e+01 -3.000000e+00 7.399452e+01
      vertex   -3.188600e+01 -4.000000e+00 7.416579e+01
    endloop
  endfacet
  facet normal 7.714892e-01 -0.000000e+00 6.362424e-01
    outer loop
      vertex   -3.188600e+01 -4.000000e+00 7.416579e+01
      vertex   -3.174476e+01 -3.000000e+00 7.399452e+01
      vertex   -3.188600e+01 -3.000000e+00 7.416579e+01
    endloop
  endfacet
  facet normal 8.595696e-01 -0.000000e+00 5.110187e-01
    outer loop
      vertex   -3.188600e+01 -4.000000e+00 7.416579e+01
      vertex   -3.188600e+01 -3.000000e+00 7.416579e+01
      vertex   -3.199944e+01 -4.000000e+00 7.435661e+01
    endloop
  endfacet
  facet normal 8.595696e-01 -0.000000e+00 5.110187e-01
    outer loop
      vertex   -3.199944e+01 -4.000000e+00 7.435661e+01
      vertex   -3.188600e+01 -3.000000e+00 7.416579e+01
      vertex   -3.199944e+01 -3.000000e+00 7.435661e+01
    endloop
  endfacet
  facet normal 9.275025e-01 -0.000000e+00 3.738171e-01
    outer loop
      vertex   -3.199944e+01 -4.000000e+00 7.435661e+01
      vertex   -3.199944e+01 -3.000000e+00 7.435661e+01
      vertex   -3.208242e+01 -4.000000e+00 7.456251e+01
    endloop
  endfacet
  facet normal 9.275025e-01 -0.000000e+00 3.738171e-01
    outer loop
      vertex   -3.208242e+01 -4.000000e+00 7.456251e+01
      vertex   -3.199944e+01 -3.000000e+00 7.435661e+01
      vertex   -3.208242e+01 -3.000000e+00 7.456251e+01
    endloop
  endfacet
  facet normal 9.736954e-01 -0.000000e+00 2.278535e-01
    outer loop
      vertex   -3.208242e+01 -4.000000e+00 7.456251e+01
      vertex   -3.208242e+01 -3.000000e+00 7.456251e+01
      vertex   -3.213301e+01 -4.000000e+00 7.477866e+01
    endloop
  endfacet
  facet normal 9.736954e-01 -0.000000e+00 2.278535e-01
    outer loop
      vertex   -3.213301e+01 -4.000000e+00 7.477866e+01
      vertex   -3.208242e+01 -3.000000e+00 7.456251e+01
      vertex   -3.213301e+01 -3.000000e+00 7.477866e+01
    endloop
  endfacet
  facet normal 9.970658e-01 -0.000000e+00 7.654925e-02
    outer loop
      vertex   -4.213301e+01 -4.000000e+00 7.477866e+01
      vertex   -4.213301e+01 -3.000000e+00 7.477866e+01
      vertex   -4.215000e+01 -4.000000e+00 7.500000e+01
    endloop
  endfacet
  facet normal 9.970658e-01 -0.000000e+00 7.654925e-02
    outer loop
      vertex   -4.215000e+01 -4.000000e+00 7.500000e+01
      vertex   -4.213301e+01 -3.000000e+00 7.477866e+01
      vertex   -4.215000e+01 -3.000000e+00 7.500000e+01
    endloop
  endfacet
  facet normal 9.970658e-01 0.000000e+00 -7.654925e-02
    outer loop
      vertex   -4.215000e+01 -4.000000e+00 7.500000e+01
      vertex   -4.215000e+01 -3.000000e+00 7.500000e+01
      vertex   -4.213301e+01 -4.000000e+00 7.522134e+01
    endloop
  endfacet
  facet normal 9.970658e-01 0.000000e+00 -7.654925e-02
    outer loop
      vertex   -4.213301e+01 -4.000000e+00 7.522134e+01
      vertex   -4.215000e+01 -3.000000e+00 7.500000e+01
      vertex   -4.213301e+01 -3.000000e+00 7.522134e+01
    endloop
  endfacet
  facet normal 9.736954e-01 0.000000e+00 -2.278535e-01
    outer loop
      vertex   -4.213301e+01 -4.000000e+00 7.522134e+01
      vertex   -4.213301e+01 -3.000000e+00 7.522134e+01
      vertex   -4.208242e+01 -4.000000e+00 7.543749e+01
    endloop
  endfacet
  facet normal 9.736954e-01 0.000000e+00 -2.278535e-01
    outer loop
      vertex   -4.208242e+01 -4.000000e+00 7.543749e+01
      vertex   -4.213301e+01 -3.000000e+00 7.522134e+01
      vertex   -4.208242e+01 -3.000000e+00 7.543749e+01
    endloop
  endfacet
  facet normal 9.275025e-01 0.000000e+00 -3.738171e-01
    outer loop
      vertex   -4.208242e+01 -4.000000e+00 7.543749e+01
      vertex   -4.208242e+01 -3.000000e+00 7.543749e+01
      vertex   -4.199944e+01 -4.000000e+00 7.564339e+01
    endloop
  endfacet
  facet normal 9.275025e-01 0.000000e+00 -3.738171e-01
    outer loop
      vertex   -4.199944e+01 -4.000000e+00 7.564339e+01
      vertex   -4.208242e+01 -3.000000e+00 7.543749e+01
      vertex   -4.199944e+01 -3.000000e+00 7.564339e+01
    endloop
  endfacet
  facet normal 8.595696e-01 0.000000e+00 -5.110187e-01
    outer loop
      vertex   -4.199944e+01 -4.000000e+00 7.564339e+01
      vertex   -4.199944e+01 -3.000000e+00 7.564339e+01
      vertex   -4.188600e+01 -4.000000e+00 7.583421e+01
    endloop
  endfacet
  facet normal 8.595696e-01 0.000000e+00 -5.110187e-01
    outer loop
      vertex   -4.188600e+01 -4.000000e+00 7.583421e+01
      vertex   -4.199944e+01 -3.000000e+00 7.564339e+01
      vertex   -4.188600e+01 -3.000000e+00 7.583421e+01
    endloop
  endfacet
  facet normal 7.714892e-01 0.000000e+00 -6.362424e-01
    outer loop
      vertex   -4.188600e+01 -4.000000e+00 7.583421e+01
      vertex   -4.188600e+01 -3.000000e+00 7.583421e+01
      vertex   -4.174476e+01 -4.000000e+00 7.600548e+01
    endloop
  endfacet
  facet normal 7.714892e-01 0.000000e+00 -6.362424e-01
    outer loop
      vertex   -4.174476e+01 -4.000000e+00 7.600548e+01
      vertex   -4.188600e+01 -3.000000e+00 7.583421e+01
      vertex   -4.174476e+01 -3.000000e+00 7.600548e+01
    endloop
  endfacet
  facet normal 6.653257e-01 0.000000e+00 -7.465532e-01
    outer loop
      vertex   -4.174476e+01 -4.000000e+00 7.600548e+01
      vertex   -4.174476e+01 -3.000000e+00 7.600548e+01
      vertex   -4.157903e+01 -4.000000e+00 7.615317e+01
    endloop
  endfacet
  facet normal 6.653257e-01 0.000000e+00 -7.465532e-01
    outer loop
      vertex   -4.157903e+01 -4.000000e+00 7.615317e+01
      vertex   -4.174476e+01 -3.000000e+00 7.600548e+01
      vertex   -4.157903e+01 -3.000000e+00 7.615317e+01
    endloop
  endfacet
  facet normal 5.435676e-01 0.000000e+00 -8.393654e-01
    outer loop
      vertex   -4.157903e+01 -4.000000e+00 7.615317e+01
      vertex   -4.157903e+01 -3.000000e+00 7.615317e+01
      vertex   -4.139269e+01 -4.000000e+00 7.627384e+01
    endloop
  endfacet
  facet normal 5.435676e-01 0.000000e+00 -8.393654e-01
    outer loop
      vertex   -4.139269e+01 -4.000000e+00 7.627384e+01
      vertex   -4.157903e+01 -3.000000e+00 7.615317e+01
      vertex   -4.139269e+01 -3.000000e+00 7.627384e+01
    endloop
  endfacet
  facet normal 4.090686e-01 0.000000e+00 -9.125036e-01
    outer loop
      vertex   -4.139269e+01 -4.000000e+00 7.627384e+01
      vertex   -4.139269e+01 -3.000000e+00 7.627384e+01
      vertex   -4.119012e+01 -4.000000e+00 7.636465e+01
    endloop
  endfacet
  facet normal 4.090686e-01 0.000000e+00 -9.125036e-01
    outer loop
      vertex   -4.119012e+01 -4.000000e+00 7.636465e+01
      vertex   -4.139269e+01 -3.000000e+00 7.627384e+01
      vertex   -4.119012e+01 -3.000000e+00 7.636465e+01
    endloop
  endfacet
  facet normal 2.649815e-01 0.000000e+00 -9.642535e-01
    outer loop
      vertex   -4.119012e+01 -4.000000e+00 7.636465e+01
      vertex   -4.119012e+01 -3.000000e+00 7.636465e+01
      vertex   -4.097607e+01 -4.000000e+00 7.642348e+01
    endloop
  endfacet
  facet normal 2.649815e-01 0.000000e+00 -9.642535e-01
    outer loop
      vertex   -4.097607e+01 -4.000000e+00 7.642348e+01
      vertex   -4.119012e+01 -3.000000e+00 7.636465e+01
      vertex   -4.097607e+01 -3.000000e+00 7.642348e+01
    endloop
  endfacet
  facet normal 1.146834e-01 0.000000e+00 -9.934021e-01
    outer loop
      vertex   -4.097607e+01 -4.000000e+00 7.642348e+01
      vertex   -4.097607e+01 -3.000000e+00 7.642348e+01
      vertex   -4.075554e+01 -4.000000e+00 7.644894e+01
    endloop
  endfacet
  facet normal 1.146834e-01 0.000000e+00 -9.934021e-01
    outer loop
      vertex   -4.075554e+01 -4.000000e+00 7.644894e+01
      vertex   -4.097607e+01 -3.000000e+00 7.642348e+01
      vertex   -4.075554e+01 -3.000000e+00 7.644894e+01
    endloop
  endfacet
  facet normal -3.830273e-02 0.000000e+00 -9.992662e-01
    outer loop
      vertex   -4.075554e+01 -4.000000e+00 7.644894e+01
      vertex   -4.075554e+01 -3.000000e+00 7.644894e+01
      vertex   -4.053371e+01 -4.000000e+00 7.644043e+01
    endloop
  endfacet
  facet normal -3.830273e-02 0.000000e+00 -9.992662e-01
    outer loop
      vertex   -4.053371e+01 -4.000000e+00 7.644043e+01
      vertex   -4.075554e+01 -3.000000e+00 7.644894e+01
      vertex   -4.053371e+01 -3.000000e+00 7.644043e+01
    endloop
  endfacet
  facet normal -1.903911e-01 0.000000e+00 -9.817083e-01
    outer loop
      vertex   -4.053371e+01 -4.000000e+00 7.644043e+01
      vertex   -4.053371e+01 -3.000000e+00 7.644043e+01
      vertex   -4.031578e+01 -4.000000e+00 7.639817e+01
    endloop
  endfacet
  facet normal -1.903911e-01 0.000000e+00 -9.817083e-01
    outer loop
      vertex   -4.031578e+01 -4.000000e+00 7.639817e+01
      vertex   -4.053371e+01 -3.000000e+00 7.644043e+01
      vertex   -4.031578e+01 -3.000000e+00 7.639817e+01
    endloop
  endfacet
  facet normal -3.380169e-01 0.000000e+00 -9.411400e-01
    outer loop
      vertex   -4.031578e+01 -4.000000e+00 7.639817e+01
      vertex   -4.031578e+01 -3.000000e+00 7.639817e+01
      vertex   -4.010685e+01 -4.000000e+00 7.632313e+01
    endloop
  endfacet
  facet normal -3.380169e-01 0.000000e+00 -9.411400e-01
    outer loop
      vertex   -4.010685e+01 -4.000000e+00 7.632313e+01
      vertex   -4.031578e+01 -3.000000e+00 7.639817e+01
      vertex   -4.010685e+01 -3.000000e+00 7.632313e+01
    endloop
  endfacet
  facet normal -4.777198e-01 0.000000e+00 -8.785123e-01
    outer loop
      vertex   -4.010685e+01 -4.000000e+00 7.632313e+01
      vertex   -4.010685e+01 -3.000000e+00 7.632313e+01
      vertex   -3.991183e+01 -4.000000e+00 7.621708e+01
    endloop
  endfacet
  facet normal -4.777198e-01 0.000000e+00 -8.785123e-01
    outer loop
      vertex   -3.991183e+01 -4.000000e+00 7.621708e+01
      vertex   -4.010685e+01 -3.000000e+00 7.632313e+01
      vertex   -3.991183e+01 -3.000000e+00 7.621708e+01
    endloop
  endfacet
  facet normal -6.062254e-01 0.000000e+00 -7.952929e-01
    outer loop
      vertex   -3.991183e+01 -4.000000e+00 7.621708e+01
      vertex   -3.991183e+01 -3.000000e+00 7.621708e+01
      vertex   -3.973528e+01 -4.000000e+00 7.608250e+01
    endloop
  endfacet
  facet normal -6.062254e-01 0.000000e+00 -7.952929e-01
    outer loop
      vertex   -3.973528e+01 -4.000000e+00 7.608250e+01
      vertex   -3.991183e+01 -3.000000e+00 7.621708e+01
      vertex   -3.973528e+01 -3.000000e+00 7.608250e+01
    endloop
  endfacet
  facet normal -7.205216e-01 0.000000e+00 -6.934325e-01
    outer loop
      vertex   -3.973528e+01 -4.000000e+00 7.608250e+01
      vertex   -3.973528e+01 -3.000000e+00 7.608250e+01
      vertex   -3.958134e+01 -4.000000e+00 7.592255e+01
    endloop
  endfacet
  facet normal -7.205216e-01 0.000000e+00 -6.934325e-01
    outer loop
      vertex   -3.958134e+01 -4.000000e+00 7.592255e+01
      vertex   -3.973528e+01 -3.000000e+00 7.608250e+01
      vertex   -3.958134e+01 -3.000000e+00 7.592255e+01
    endloop
  endfacet
  facet normal -8.179294e-01 0.000000e+00 -5.753187e-01
    outer loop
      vertex   -3.958134e+01 -4.000000e+00 7.592255e+01
      vertex   -3.958134e+01 -3.000000e+00 7.592255e+01
      vertex   -3.945362e+01 -4.000000e+00 7.574098e+01
    endloop
  endfacet
  facet normal -8.179294e-01 0.000000e+00 -5.753187e-01
    outer loop
      vertex   -3.945362e+01 -4.000000e+00 7.574098e+01
      vertex   -3.958134e+01 -3.000000e+00 7.592255e+01
      vertex   -3.945362e+01 -3.000000e+00 7.574098e+01
    endloop
  endfacet
  facet normal -8.961656e-01 0.000000e+00 -4.437198e-01
    outer loop
      vertex   -3.945362e+01 -4.000000e+00 7.574098e+01
      vertex   -3.945362e+01 -3.000000e+00 7.574098e+01
      vertex   -3.935512e+01 -4.000000e+00 7.554203e+01
    endloop
  endfacet
  facet normal -8.961656e-01 0.000000e+00 -4.437198e-01
    outer loop
      vertex   -3.935512e+01 -4.000000e+00 7.554203e+01
      vertex   -3.945362e+01 -3.000000e+00 7.574098e+01
      vertex   -3.935512e+01 -3.000000e+00 7.554203e+01
    endloop
  endfacet
  facet normal -9.533964e-01 0.000000e+00 -3.017206e-01
    outer loop
      vertex   -3.935512e+01 -4.000000e+00 7.554203e+01
      vertex   -3.935512e+01 -3.000000e+00 7.554203e+01
      vertex   -3.928814e+01 -4.000000e+00 7.533039e+01
    endloop
  endfacet
  facet normal -9.533964e-01 0.000000e+00 -3.017206e-01
    outer loop
      vertex   -3.928814e+01 -4.000000e+00 7.533039e+01
      vertex   -3.935512e+01 -3.000000e+00 7.554203e+01
      vertex   -3.928814e+01 -3.000000e+00 7.533039e+01
    endloop
  endfacet
  facet normal -9.882804e-01 0.000000e+00 -1.526493e-01
    outer loop
      vertex   -3.928814e+01 -4.000000e+00 7.533039e+01
      vertex   -3.928814e+01 -3.000000e+00 7.533039e+01
      vertex   -3.925425e+01 -4.000000e+00 7.511100e+01
    endloop
  endfacet
  facet normal -9.882804e-01 0.000000e+00 -1.526493e-01
    outer loop
      vertex   -3.925425e+01 -4.000000e+00 7.511100e+01
      vertex   -3.928814e+01 -3.000000e+00 7.533039e+01
      vertex   -3.925425e+01 -3.000000e+00 7.511100e+01
    endloop
  endfacet
  facet normal -1.000000e+00 0.000000e+00 0.000000e+00
    outer loop
      vertex   -3.925425e+01 -4.000000e+00 7.511100e+01
      vertex   -3.925425e+01 -3.000000e+00 7.511100e+01
      vertex   -3.925425e+01 -4.000000e+00 7.488900e+01
    endloop
  endfacet
  facet normal -1.000000e+00 0.000000e+00 0.000000e+00
    outer loop
      vertex   -3.925425e+01 -4.000000e+00 7.488900e+01
      vertex   -3.925425e+01 -3.000000e+00 7.511100e+01
      vertex   -3.925425e+01 -3.000000e+00 7.488900e+01
    endloop
  endfacet
  facet normal -9.882804e-01 0.000000e+00 1.526493e-01
    outer loop
      vertex   -3.925425e+01 -4.000000e+00 7.488900e+01
      vertex   -3.925425e+01 -3.000000e+00 7.488900e+01
      vertex   -3.928814e+01 -4.000000e+00 7.466961e+01
    endloop
  endfacet
  facet normal -9.882804e-01 0.000000e+00 1.526493e-01
    outer loop
      vertex   -3.928814e+01 -4.000000e+00 7.466961e+01
      vertex   -3.925425e+01 -3.000000e+00 7.488900e+01
      vertex   -3.928814e+01 -3.000000e+00 7.466961e+01
    endloop
  endfacet
  facet normal -9.533964e-01 0.000000e+00 3.017206e-01
    outer loop
      vertex   -3.928814e+01 -4.000000e+00 7.466961e+01
      vertex   -3.928814e+01 -3.000000e+00 7.466961e+01
      vertex   -3.935512e+01 -4.000000e+00 7.445797e+01
    endloop
  endfacet
  facet normal -9.533964e-01 0.000000e+00 3.017206e-01
    outer loop
      vertex   -3.935512e+01 -4.000000e+00 7.445797e+01
      vertex   -3.928814e+01 -3.000000e+00 7.466961e+01
      vertex   -3.935512e+01 -3.000000e+00 7.445797e+01
    endloop
  endfacet
  facet normal -8.961656e-01 0.000000e+00 4.437198e-01
    outer loop
      vertex   -3.935512e+01 -4.000000e+00 7.445797e+01
      vertex   -3.935512e+01 -3.000000e+00 7.445797e+01
      vertex   -3.945362e+01 -4.000000e+00 7.425902e+01
    endloop
  endfacet
  facet normal -8.961656e-01 0.000000e+00 4.437198e-01
    outer loop
      vertex   -3.945362e+01 -4.000000e+00 7.425902e+01
      vertex   -3.935512e+01 -3.000000e+00 7.445797e+01
      vertex   -3.945362e+01 -3.000000e+00 7.425902e+01
    endloop
  endfacet
  facet normal -8.179294e-01 0.000000e+00 5.753187e-01
    outer loop
      vertex   -3.945362e+01 -4.000000e+00 7.425902e+01
      vertex   -3.945362e+01 -3.000000e+00 7.425902e+01
      vertex   -3.958134e+01 -4.000000e+00 7.407745e+01
    endloop
  endfacet
  facet normal -8.179294e-01 0.000000e+00 5.753187e-01
    outer loop
      vertex   -3.958134e+01 -4.000000e+00 7.407745e+01
      vertex   -3.945362e+01 -3.000000e+00 7.425902e+01
      vertex   -3.958134e+01 -3.000000e+00 7.407745e+01
    endloop
  endfacet
  facet normal -7.205216e-01 0.000000e+00 6.934325e-01
    outer loop
      vertex   -3.958134e+01 -4.000000e+00 7.407745e+01
      vertex   -3.958134e+01 -3.000000e+00 7.407745e+01
      vertex   -3.973528e+01 -4.000000e+00 7.391750e+01
    endloop
  endfacet
  facet normal -7.205216e-01 0.000000e+00 6.934325e-01
    outer loop
      vertex   -3.973528e+01 -4.000000e+00 7.391750e+01
      vertex   -3.958134e+01 -3.000000e+00 7.407745e+01
      vertex   -3.973528e+01 -3.000000e+00 7.391750e+01
    endloop
  endfacet
  facet normal -6.062254e-01 0.000000e+00 7.952929e-01
    outer loop
      vertex   -3.973528e+01 -4.000000e+00 7.391750e+01
      vertex   -3.973528e+01 -3.000000e+00 7.391750e+01
      vertex   -3.991183e+01 -4.000000e+00 7.378292e+01
    endloop
  endfacet
  facet normal -6.062254e-01 0.000000e+00 7.952929e-01
    outer loop
      vertex   -3.991183e+01 -4.000000e+00 7.378292e+01
      vertex   -3.973528e+01 -3.000000e+00 7.391750e+01
      vertex   -3.991183e+01 -3.000000e+00 7.378292e+01
    endloop
  endfacet
  facet normal -4.777198e-01 0.000000e+00 8.785123e-01
    outer loop
      vertex   -3.991183e+01 -4.000000e+00 7.378292e+01
      vertex   -3.991183e+01 -3.000000e+00 7.378292e+01
      vertex   -4.010685e+01 -4.000000e+00 7.367687e+01
    endloop
  endfacet
  facet normal -4.777198e-01 0.000000e+00 8.785123e-01
    outer loop
      vertex   -4.010685e+01 -4.000000e+00 7.367687e+01
      vertex   -3.991183e+01 -3.000000e+00 7.378292e+01
      vertex   -4.010685e+01 -3.000000e+00 7.367687e+01
    endloop
  endfacet
  facet normal -3.380169e-01 0.000000e+00 9.411400e-01
    outer loop
      vertex   -4.010685e+01 -4.000000e+00 7.367687e+01
      vertex   -4.010685e+01 -3.000000e+00 7.367687e+01
      vertex   -4.031578e+01 -4.000000e+00 7.360183e+01
    endloop
  endfacet
  facet normal -3.380169e-01 0.000000e+00 9.411400e-01
    outer loop
      vertex   -4.031578e+01 -4.000000e+00 7.360183e+01
      vertex   -4.010685e+01 -3.000000e+00 7.367687e+01
      vertex   -4.031578e+01 -3.000000e+00 7.360183e+01
    endloop
  endfacet
  facet normal -1.903911e-01 0.000000e+00 9.817083e-01
    outer loop
      vertex   -4.031578e+01 -4.000000e+00 7.360183e+01
      vertex   -4.031578e+01 -3.000000e+00 7.360183e+01
      vertex   -4.053371e+01 -4.000000e+00 7.355957e+01
    endloop
  endfacet
  facet normal -1.903911e-01 0.000000e+00 9.817083e-01
    outer loop
      vertex   -4.053371e+01 -4.000000e+00 7.355957e+01
      vertex   -4.031578e+01 -3.000000e+00 7.360183e+01
      vertex   -4.053371e+01 -3.000000e+00 7.355957e+01
    endloop
  endfacet
  facet normal -3.830273e-02 0.000000e+00 9.992662e-01
    outer loop
      vertex   -4.053371e+01 -4.000000e+00 7.355957e+01
      vertex   -4.053371e+01 -3.000000e+00 7.355957e+01
      vertex   -4.075554e+01 -4.000000e+00 7.355106e+01
    endloop
  endfacet
  facet normal -3.830273e-02 0.000000e+00 9.992662e-01
    outer loop
      vertex   -4.075554e+01 -4.000000e+00 7.355106e+01
      vertex   -4.053371e+01 -3.000000e+00 7.355957e+01
      vertex   -4.075554e+01 -3.000000e+00 7.355106e+01
    endloop
  endfacet
  facet normal 1.146834e-01 -0.000000e+00 9.934021e-01
    outer loop
      vertex   -4.075554e+01 -4.000000e+00 7.355106e+01
      vertex   -4.075554e+01 -3.000000e+00 7.355106e+01
      vertex   -4.097607e+01 -4.000000e+00 7.357652e+01
    endloop
  endfacet
  facet normal 1.146834e-01 -0.000000e+00 9.934021e-01
    outer loop
      vertex   -4.097607e+01 -4.000000e+00 7.357652e+01
      vertex   -4.075554e+01 -3.000000e+00 7.355106e+01
      vertex   -4.097607e+01 -3.000000e+00 7.357652e+01
    endloop
  endfacet
  facet normal 2.649815e-01 -0.000000e+00 9.642535e-01
    outer loop
      vertex   -4.097607e+01 -4.000000e+00 7.357652e+01
      vertex   -4.097607e+01 -3.000000e+00 7.357652e+01
      vertex   -4.119012e+01 -4.000000e+00 7.363535e+01
    endloop
  endfacet
  facet normal 2.649815e-01 -0.000000e+00 9.642535e-01
    outer loop
      vertex   -4.119012e+01 -4.000000e+00 7.363535e+01
      vertex   -4.097607e+01 -3.000000e+00 7.357652e+01
      vertex   -4.119012e+01 -3.000000e+00 7.363535e+01
    endloop
  endfacet
  facet normal 4.090686e-01 -0.000000e+00 9.125036e-01
    outer loop
      vertex   -4.119012e+01 -4.000000e+00 7.363535e+01
      vertex   -4.119012e+01 -3.000000e+00 7.363535e+01
      vertex   -4.139269e+01 -4.000000e+00 7.372616e+01
    endloop
  endfacet
  facet normal 4.090686e-01 -0.000000e+00 9.125036e-01
    outer loop
      vertex   -4.139269e+01 -4.000000e+00 7.372616e+01
      vertex   -4.119012e+01 -3.000000e+00 7.363535e+01
      vertex   -4.139269e+01 -3.000000e+00 7.372616e+01
    endloop
  endfacet
  facet normal 5.435676e-01 -0.000000e+00 8.393654e-01
    outer loop
      vertex   -4.139269e+01 -4.000000e+00 7.372616e+01
      vertex   -4.139269e+01 -3.000000e+00 7.372616e+01
      vertex   -4.157903e+01 -4.000000e+00 7.384683e+01
    endloop
  endfacet
  facet normal 5.435676e-01 -0.000000e+00 8.393654e-01
    outer loop
      vertex   -4.157903e+01 -4.000000e+00 7.384683e+01
      vertex   -4.139269e+01 -3.000000e+00 7.372616e+01
      vertex   -4.157903e+01 -3.000000e+00 7.384683e+01
    endloop
  endfacet
  facet normal 6.653257e-01 -0.000000e+00 7.465532e-01
    outer loop
      vertex   -4.157903e+01 -4.000000e+00 7.384683e+01
      vertex   -4.157903e+01 -3.000000e+00 7.384683e+01
      vertex   -4.174476e+01 -4.000000e+00 7.399452e+01
    endloop
  endfacet
  facet normal 6.653257e-01 -0.000000e+00 7.465532e-01
    outer loop
      vertex   -4.174476e+01 -4.000000e+00 7.399452e+01
      vertex   -4.157903e+01 -3.000000e+00 7.384683e+01
      vertex   -4.174476e+01 -3.000000e+00 7.399452e+01
    endloop
  endfacet
  facet normal 7.714892e-01 -0.000000e+00 6.362424e-01
    outer loop
      vertex   -4.174476e+01 -4.000000e+00 7.399452e+01
      vertex   -4.174476e+01 -3.000000e+00 7.399452e+01
      vertex   -4.188600e+01 -4.000000e+00 7.416579e+01
    endloop
  endfacet
  facet normal 7.714892e-01 -0.000000e+00 6.362424e-01
    outer loop
      vertex   -4.188600e+01 -4.000000e+00 7.416579e+01
      vertex   -4.174476e+01 -3.000000e+00 7.399452e+01
      vertex   -4.188600e+01 -3.000000e+00 7.416579e+01
    endloop
  endfacet
  facet normal 8.595696e-01 -0.000000e+00 5.110187e-01
    outer loop
      vertex   -4.188600e+01 -4.000000e+00 7.416579e+01
      vertex   -4.188600e+01 -3.000000e+00 7.416579e+01
      vertex   -4.199944e+01 -4.000000e+00 7.435661e+01
    endloop
  endfacet
  facet normal 8.595696e-01 -0.000000e+00 5.110187e-01
    outer loop
      vertex   -4.199944e+01 -4.000000e+00 7.435661e+01
      vertex   -4.188600e+01 -3.000000e+00 7.416579e+01
      vertex   -4.199944e+01 -3.000000e+00 7.435661e+01
    endloop
  endfacet
  facet normal 9.275025e-01 -0.000000e+00 3.738171e-01
    outer loop
      vertex   -4.199944e+01 -4.000000e+00 7.435661e+01
      vertex   -4.199944e+01 -3.000000e+00 7.435661e+01
      vertex   -4.208242e+01 -4.000000e+00 7.456251e+01
    endloop
  endfacet
  facet normal 9.275025e-01 -0.000000e+00 3.738171e-01
    outer loop
      vertex   -4.208242e+01 -4.000000e+00 7.456251e+01
      vertex   -4.199944e+01 -3.000000e+00 7.435661e+01
      vertex   -4.208242e+01 -3.000000e+00 7.456251e+01
    endloop
  endfacet
  facet normal 9.736954e-01 -0.000000e+00 2.278535e-01
    outer loop
      vertex   -4.208242e+01 -4.000000e+00 7.456251e+01
      vertex   -4.208242e+01 -3.000000e+00 7.456251e+01
      vertex   -4.213301e+01 -4.000000e+00 7.477866e+01
    endloop
  endfacet
  facet normal 9.736954e-01 -0.000000e+00 2.278535e-01
    outer loop
      vertex   -4.213301e+01 -4.000000e+00 7.477866e+01
      vertex   -4.208242e+01 -3.000000e+00 7.456251e+01
      vertex   -4.213301e+01 -3.000000e+00 7.477866e+01
    endloop
  endfacet
  facet normal 7.322717e-01 0.000000e+00 6.810126e-01
    outer loop
      vertex   -2.640000e+01 -3.000000e+00 8.000000e+01
      vertex   -3.570000e+01 -3.000000e+00 9.000000e+01
      vertex   -2.640000e+01 -4.000000e+00 8.000000e+01
    endloop
  endfacet
  facet normal 7.322717e-01 0.000000e+00 6.810126e-01
    outer loop
      vertex   -2.640000e+01 -4.000000e+00 8.000000e+01
      vertex   -3.570000e+01 -3.000000e+00 9.000000e+01
      vertex   -3.570000e+01 -4.000000e+00 9.000000e+01
    endloop
  endfacet
  facet normal 1.000000e+00 0.000000e+00 -0.000000e+00
    outer loop
      vertex   -2.640000e+01 -3.000000e+00 7.000000e+01
      vertex   -2.640000e+01 -3.000000e+00 8.000000e+01
      vertex   -2.640000e+01 -4.000000e+00 7.000000e+01
    endloop
  endfacet
  facet normal 1.000000e+00 0.000000e+00 0.000000e+00
    outer loop
      vertex   -2.640000e+01 -4.000000e+00 7.000000e+01
      vertex   -2.640000e+01 -3.000000e+00 8.000000e+01
      vertex   -2.640000e+01 -4.000000e+00 8.000000e+01
    endloop
  endfacet
  facet normal 0.000000e+00 0.000000e+00 -1.000000e+00
    outer loop
      vertex   -4.500000e+01 -3.000000e+00 7.000000e+01
      vertex   -2.640000e+01 -3.000000e+00 7.000000e+01
      vertex   -4.500000e+01 -4.000000e+00 7.000000e+01
    endloop
  endfacet
  facet normal 0.000000e+00 0.000000e+00 -1.000000e+00
    outer loop
      vertex   -4.500000e+01 -4.000000e+00 7.000000e+01
      vertex   -2.640000e+01 -3.000000e+00 7.000000e+01
      vertex   -2.640000e+01 -4.000000e+00 7.000000e+01
    endloop
  endfacet
  facet normal -1.000000e+00 -0.000000e+00 -0.000000e+00
    outer loop
      vertex   -4.500000e+01 -3.000000e+00 9.000000e+01
      vertex   -4.500000e+01 -3.000000e+00 7.000000e+01
      vertex   -4.500000e+01 -4.000000e+00 9.000000e+01
    endloop
  endfacet
  facet normal -1.000000e+00 0.000000e+00 0.000000e+00
    outer loop
      vertex   -4.500000e+01 -4.000000e+00 9.000000e+01
      vertex   -4.500000e+01 -3.000000e+00 7.000000e+01
      vertex   -4.500000e+01 -4.000000e+00 7.000000e+01
    endloop
  endfacet
  facet normal 0.000000e+00 0.000000e+00 1.000000e+00
    outer loop
      vertex   -3.570000e+01 -3.000000e+00 9.000000e+01
      vertex   -4.500000e+01 -3.000000e+00 9.000000e+01
      vertex   -3.570000e+01 -4.000000e+00 9.000000e+01
    endloop
  endfacet
  facet normal 0.000000e+00 0.000000e+00 1.000000e+00
    outer loop
      vertex   -3.570000e+01 -4.000000e+00 9.000000e+01
      vertex   -4.500000e+01 -3.000000e+00 9.000000e+01
      vertex   -4.500000e+01 -4.000000e+00 9.000000e+01
    endloop
  endfacet
  facet normal -0.000000e+00 -1.000000e+00 0.000000e+00
    outer loop
      vertex   -4.213301e+01 -4.000000e+00 7.477866e+01
      vertex   -4.215000e+01 -4.000000e+00 7.500000e+01
      vertex   -4.500000e+01 -4.000000e+00 7.000000e+01
    endloop
  endfacet
  facet normal 0.000000e+00 -1.000000e+00 0.000000e+00
    outer loop
      vertex   -4.500000e+01 -4.000000e+00 7.000000e+01
      vertex   -4.215000e+01 -4.000000e+00 7.500000e+01
      vertex   -4.213301e+01 -4.000000e+00 7.522134e+01
    endloop
  endfacet
  facet normal 0.000000e+00 -1.000000e+00 0.000000e+00
    outer loop
      vertex   -4.500000e+01 -4.000000e+00 7.000000e+01
      vertex   -4.213301e+01 -4.000000e+00 7.522134e+01
      vertex   -4.208242e+01 -4.000000e+00 7.543749e+01
    endloop
  endfacet
  facet normal 0.000000e+00 -1.000000e+00 0.000000e+00
    outer loop
      vertex   -4.500000e+01 -4.000000e+00 7.000000e+01
      vertex   -4.208242e+01 -4.000000e+00 7.543749e+01
      vertex   -4.500000e+01 -4.000000e+00 9.000000e+01
    endloop
  endfacet
  facet normal 0.000000e+00 -1.000000e+00 0.000000e+00
    outer loop
      vertex   -4.500000e+01 -4.000000e+00 9.000000e+01
      vertex   -4.208242e+01 -4.000000e+00 7.543749e+01
      vertex   -4.199944e+01 -4.000000e+00 7.564339e+01
    endloop
  endfacet
  facet normal 0.000000e+00 -1.000000e+00 0.000000e+00
    outer loop
      vertex   -4.500000e+01 -4.000000e+00 9.000000e+01
      vertex   -4.199944e+01 -4.000000e+00 7.564339e+01
      vertex   -4.188600e+01 -4.000000e+00 7.583421e+01
    endloop
  endfacet
  facet normal 0.000000e+00 -1.000000e+00 0.000000e+00
    outer loop
      vertex   -4.188600e+01 -4.000000e+00 7.583421e+01
      vertex   -4.174476e+01 -4.000000e+00 7.600548e+01
      vertex   -4.500000e+01 -4.000000e+00 9.000000e+01
    endloop
  endfacet
  facet normal 0.000000e+00 -1.000000e+00 0.000000e+00
    outer loop
      vertex   -4.500000e+01 -4.000000e+00 9.000000e+01
      vertex   -4.174476e+01 -4.000000e+00 7.600548e+01
      vertex   -4.157903e+01 -4.000000e+00 7.615317e+01
    endloop
  endfacet
  facet normal 0.000000e+00 -1.000000e+00 0.000000e+00
    outer loop
      vertex   -4.500000e+01 -4.000000e+00 9.000000e+01
      vertex   -4.157903e+01 -4.000000e+00 7.615317e+01
      vertex   -4.139269e+01 -4.000000e+00 7.627384e+01
    endloop
  endfacet
  facet normal 0.000000e+00 -1.000000e+00 0.000000e+00
    outer loop
      vertex   -4.139269e+01 -4.000000e+00 7.627384e+01
      vertex   -4.119012e+01 -4.000000e+00 7.636465e+01
      vertex   -4.500000e+01 -4.000000e+00 9.000000e+01
    endloop
  endfacet
  facet normal 0.000000e+00 -1.000000e+00 0.000000e+00
    outer loop
      vertex   -4.500000e+01 -4.000000e+00 9.000000e+01
      vertex   -4.119012e+01 -4.000000e+00 7.636465e+01
      vertex   -4.097607e+01 -4.000000e+00 7.642348e+01
    endloop
  endfacet
  facet normal 0.000000e+00 -1.000000e+00 0.000000e+00
    outer loop
      vertex   -4.500000e+01 -4.000000e+00 9.000000e+01
      vertex   -4.097607e+01 -4.000000e+00 7.642348e+01
      vertex   -4.075554e+01 -4.000000e+00 7.644894e+01
    endloop
  endfacet
  facet normal 0.000000e+00 -1.000000e+00 0.000000e+00
    outer loop
      vertex   -4.075554e+01 -4.000000e+00 7.644894e+01
      vertex   -4.053371e+01 -4.000000e+00 7.644043e+01
      vertex   -4.500000e+01 -4.000000e+00 9.000000e+01
    endloop
  endfacet
  facet normal 0.000000e+00 -1.000000e+00 0.000000e+00
    outer loop
      vertex   -4.500000e+01 -4.000000e+00 9.000000e+01
      vertex   -4.053371e+01 -4.000000e+00 7.644043e+01
      vertex   -3.570000e+01 -4.000000e+00 9.000000e+01
    endloop
  endfacet
  facet normal 0.000000e+00 -1.000000e+00 0.000000e+00
    outer loop
      vertex   -3.570000e+01 -4.000000e+00 9.000000e+01
      vertex   -4.053371e+01 -4.000000e+00 7.644043e+01
      vertex   -4.031578e+01 -4.000000e+00 7.639817e+01
    endloop
  endfacet
  facet normal 0.000000e+00 -1.000000e+00 0.000000e+00
    outer loop
      vertex   -3.570000e+01 -4.000000e+00 9.000000e+01
      vertex   -4.031578e+01 -4.000000e+00 7.639817e+01
      vertex   -4.010685e+01 -4.000000e+00 7.632313e+01
    endloop
  endfacet
  facet normal 0.000000e+00 -1.000000e+00 0.000000e+00
    outer loop
      vertex   -4.010685e+01 -4.000000e+00 7.632313e+01
      vertex   -3.991183e+01 -4.000000e+00 7.621708e+01
      vertex   -3.570000e+01 -4.000000e+00 9.000000e+01
    endloop
  endfacet
  facet normal 0.000000e+00 -1.000000e+00 0.000000e+00
    outer loop
      vertex   -3.570000e+01 -4.000000e+00 9.000000e+01
      vertex   -3.991183e+01 -4.000000e+00 7.621708e+01
      vertex   -3.973528e+01 -4.000000e+00 7.608250e+01
    endloop
  endfacet
  facet normal 0.000000e+00 -1.000000e+00 -0.000000e+00
    outer loop
      vertex   -3.570000e+01 -4.000000e+00 9.000000e+01
      vertex   -3.973528e+01 -4.000000e+00 7.608250e+01
      vertex   -3.157903e+01 -4.000000e+00 7.615317e+01
    endloop
  endfacet
  facet normal 0.000000e+00 -1.000000e+00 0.000000e+00
    outer loop
      vertex   -3.157903e+01 -4.000000e+00 7.615317e+01
      vertex   -3.973528e+01 -4.000000e+00 7.608250e+01
      vertex   -3.174476e+01 -4.000000e+00 7.600548e+01
    endloop
  endfacet
  facet normal -0.000000e+00 -1.000000e+00 0.000000e+00
    outer loop
      vertex   -3.174476e+01 -4.000000e+00 7.600548e+01
      vertex   -3.973528e+01 -4.000000e+00 7.608250e+01
      vertex   -3.958134e+01 -4.000000e+00 7.592255e+01
    endloop
  endfacet
  facet normal 0.000000e+00 -1.000000e+00 0.000000e+00
    outer loop
      vertex   -3.174476e+01 -4.000000e+00 7.600548e+01
      vertex   -3.958134e+01 -4.000000e+00 7.592255e+01
      vertex   -3.188600e+01 -4.000000e+00 7.583421e+01
    endloop
  endfacet
  facet normal -0.000000e+00 -1.000000e+00 0.000000e+00
    outer loop
      vertex   -3.188600e+01 -4.000000e+00 7.583421e+01
      vertex   -3.958134e+01 -4.000000e+00 7.592255e+01
      vertex   -3.945362e+01 -4.000000e+00 7.574098e+01
    endloop
  endfacet
  facet normal 0.000000e+00 -1.000000e+00 0.000000e+00
    outer loop
      vertex   -3.188600e+01 -4.000000e+00 7.583421e+01
      vertex   -3.945362e+01 -4.000000e+00 7.574098e+01
      vertex   -3.199944e+01 -4.000000e+00 7.564339e+01
    endloop
  endfacet
  facet normal -0.000000e+00 -1.000000e+00 0.000000e+00
    outer loop
      vertex   -3.199944e+01 -4.000000e+00 7.564339e+01
      vertex   -3.945362e+01 -4.000000e+00 7.574098e+01
      vertex   -3.935512e+01 -4.000000e+00 7.554203e+01
    endloop
  endfacet
  facet normal 0.000000e+00 -1.000000e+00 0.000000e+00
    outer loop
      vertex   -3.199944e+01 -4.000000e+00 7.564339e+01
      vertex   -3.935512e+01 -4.000000e+00 7.554203e+01
      vertex   -3.208242e+01 -4.000000e+00 7.543749e+01
    endloop
  endfacet
  facet normal -0.000000e+00 -1.000000e+00 0.000000e+00
    outer loop
      vertex   -3.208242e+01 -4.000000e+00 7.543749e+01
      vertex   -3.935512e+01 -4.000000e+00 7.554203e+01
      vertex   -3.928814e+01 -4.000000e+00 7.533039e+01
    endloop
  endfacet
  facet normal 0.000000e+00 -1.000000e+00 0.000000e+00
    outer loop
      vertex   -3.208242e+01 -4.000000e+00 7.543749e+01
      vertex   -3.928814e+01 -4.000000e+00 7.533039e+01
      vertex   -3.213301e+01 -4.000000e+00 7.522134e+01
    endloop
  endfacet
  facet normal -0.000000e+00 -1.000000e+00 0.000000e+00
    outer loop
      vertex   -3.213301e+01 -4.000000e+00 7.522134e+01
      vertex   -3.928814e+01 -4.000000e+00 7.533039e+01
      vertex   -3.925425e+01 -4.000000e+00 7.511100e+01
    endloop
  endfacet
  facet normal 0.000000e+00 -1.000000e+00 0.000000e+00
    outer loop
      vertex   -3.213301e+01 -4.000000e+00 7.522134e+01
      vertex   -3.925425e+01 -4.000000e+00 7.511100e+01
      vertex   -3.215000e+01 -4.000000e+00 7.500000e+01
    endloop
  endfacet
  facet normal -0.000000e+00 -1.000000e+00 0.000000e+00
    outer loop
      vertex   -3.215000e+01 -4.000000e+00 7.500000e+01
      vertex   -3.925425e+01 -4.000000e+00 7.511100e+01
      vertex   -3.925425e+01 -4.000000e+00 7.488900e+01
    endloop
  endfacet
  facet normal 0.000000e+00 -1.000000e+00 -0.000000e+00
    outer loop
      vertex   -3.215000e+01 -4.000000e+00 7.500000e+01
      vertex   -3.925425e+01 -4.000000e+00 7.488900e+01
      vertex   -3.213301e+01 -4.000000e+00 7.477866e+01
    endloop
  endfacet
  facet normal -0.000000e+00 -1.000000e+00 0.000000e+00
    outer loop
      vertex   -3.213301e+01 -4.000000e+00 7.477866e+01
      vertex   -3.925425e+01 -4.000000e+00 7.488900e+01
      vertex   -3.928814e+01 -4.000000e+00 7.466961e+01
    endloop
  endfacet
  facet normal 0.000000e+00 -1.000000e+00 -0.000000e+00
    outer loop
      vertex   -3.213301e+01 -4.000000e+00 7.477866e+01
      vertex   -3.928814e+01 -4.000000e+00 7.466961e+01
      vertex   -3.208242e+01 -4.000000e+00 7.456251e+01
    endloop
  endfacet
  facet normal -0.000000e+00 -1.000000e+00 0.000000e+00
    outer loop
      vertex   -3.208242e+01 -4.000000e+00 7.456251e+01
      vertex   -3.928814e+01 -4.000000e+00 7.466961e+01
      vertex   -3.935512e+01 -4.000000e+00 7.445797e+01
    endloop
  endfacet
  facet normal 0.000000e+00 -1.000000e+00 -0.000000e+00
    outer loop
      vertex   -3.208242e+01 -4.000000e+00 7.456251e+01
      vertex   -3.935512e+01 -4.000000e+00 7.445797e+01
      vertex   -3.199944e+01 -4.000000e+00 7.435661e+01
    endloop
  endfacet
  facet normal -0.000000e+00 -1.000000e+00 0.000000e+00
    outer loop
      vertex   -3.199944e+01 -4.000000e+00 7.435661e+01
      vertex   -3.935512e+01 -4.000000e+00 7.445797e+01
      vertex   -3.945362e+01 -4.000000e+00 7.425902e+01
    endloop
  endfacet
  facet normal 0.000000e+00 -1.000000e+00 -0.000000e+00
    outer loop
      vertex   -3.199944e+01 -4.000000e+00 7.435661e+01
      vertex   -3.945362e+01 -4.000000e+00 7.425902e+01
      vertex   -3.188600e+01 -4.000000e+00 7.416579e+01
    endloop
  endfacet
  facet normal -0.000000e+00 -1.000000e+00 0.000000e+00
    outer loop
      vertex   -3.188600e+01 -4.000000e+00 7.416579e+01
      vertex   -3.945362e+01 -4.000000e+00 7.425902e+01
      vertex   -3.958134e+01 -4.000000e+00 7.407745e+01
    endloop
  endfacet
  facet normal 0.000000e+00 -1.000000e+00 -0.000000e+00
    outer loop
      vertex   -3.188600e+01 -4.000000e+00 7.416579e+01
      vertex   -3.958134e+01 -4.000000e+00 7.407745e+01
      vertex   -3.174476e+01 -4.000000e+00 7.399452e+01
    endloop
  endfacet
  facet normal -0.000000e+00 -1.000000e+00 0.000000e+00
    outer loop
      vertex   -3.174476e+01 -4.000000e+00 7.399452e+01
      vertex   -3.958134e+01 -4.000000e+00 7.407745e+01
      vertex   -3.973528e+01 -4.000000e+00 7.391750e+01
    endloop
  endfacet
  facet normal 0.000000e+00 -1.000000e+00 -0.000000e+00
    outer loop
      vertex   -3.174476e+01 -4.000000e+00 7.399452e+01
      vertex   -3.973528e+01 -4.000000e+00 7.391750e+01
      vertex   -3.157903e+01 -4.000000e+00 7.384683e+01
    endloop
  endfacet
  facet normal -0.000000e+00 -1.000000e+00 0.000000e+00
    outer loop
      vertex   -3.157903e+01 -4.000000e+00 7.384683e+01
      vertex   -3.973528e+01 -4.000000e+00 7.391750e+01
      vertex   -3.991183e+01 -4.000000e+00 7.378292e+01
    endloop
  endfacet
  facet normal 0.000000e+00 -1.000000e+00 -0.000000e+00
    outer loop
      vertex   -3.157903e+01 -4.000000e+00 7.384683e+01
      vertex   -3.991183e+01 -4.000000e+00 7.378292e+01
      vertex   -3.139269e+01 -4.000000e+00 7.372616e+01
    endloop
  endfacet
  facet normal -0.000000e+00 -1.000000e+00 0.000000e+00
    outer loop
      vertex   -3.139269e+01 -4.000000e+00 7.372616e+01
      vertex   -3.991183e+01 -4.000000e+00 7.378292e+01
      vertex   -4.010685e+01 -4.000000e+00 7.367687e+01
    endloop
  endfacet
  facet normal 0.000000e+00 -1.000000e+00 -0.000000e+00
    outer loop
      vertex   -3.139269e+01 -4.000000e+00 7.372616e+01
      vertex   -4.010685e+01 -4.000000e+00 7.367687e+01
      vertex   -3.119012e+01 -4.000000e+00 7.363535e+01
    endloop
  endfacet
  facet normal -0.000000e+00 -1.000000e+00 0.000000e+00
    outer loop
      vertex   -3.119012e+01 -4.000000e+00 7.363535e+01
      vertex   -4.010685e+01 -4.000000e+00 7.367687e+01
      vertex   -4.500000e+01 -4.000000e+00 7.000000e+01
    endloop
  endfacet
  facet normal 0.000000e+00 -1.000000e+00 -0.000000e+00
    outer loop
      vertex   -3.119012e+01 -4.000000e+00 7.363535e+01
      vertex   -4.500000e+01 -4.000000e+00 7.000000e+01
      vertex   -2.640000e+01 -4.000000e+00 7.000000e+01
    endloop
  endfacet
  facet normal 0.000000e+00 -1.000000e+00 0.000000e+00
    outer loop
      vertex   -4.010685e+01 -4.000000e+00 7.367687e+01
      vertex   -4.031578e+01 -4.000000e+00 7.360183e+01
      vertex   -4.500000e+01 -4.000000e+00 7.000000e+01
    endloop
  endfacet
  facet normal 0.000000e+00 -1.000000e+00 0.000000e+00
    outer loop
      vertex   -4.500000e+01 -4.000000e+00 7.000000e+01
      vertex   -4.031578e+01 -4.000000e+00 7.360183e+01
      vertex   -4.053371e+01 -4.000000e+00 7.355957e+01
    endloop
  endfacet
  facet normal 0.000000e+00 -1.000000e+00 0.000000e+00
    outer loop
      vertex   -4.500000e+01 -4.000000e+00 7.000000e+01
      vertex   -4.053371e+01 -4.000000e+00 7.355957e+01
      vertex   -4.075554e+01 -4.000000e+00 7.355106e+01
    endloop
  endfacet
  facet normal -0.000000e+00 -1.000000e+00 0.000000e+00
    outer loop
      vertex   -4.075554e+01 -4.000000e+00 7.355106e+01
      vertex   -4.097607e+01 -4.000000e+00 7.357652e+01
      vertex   -4.500000e+01 -4.000000e+00 7.000000e+01
    endloop
  endfacet
  facet normal 0.000000e+00 -1.000000e+00 0.000000e+00
    outer loop
      vertex   -4.500000e+01 -4.000000e+00 7.000000e+01
      vertex   -4.097607e+01 -4.000000e+00 7.357652e+01
      vertex   -4.119012e+01 -4.000000e+00 7.363535e+01
    endloop
  endfacet
  facet normal 0.000000e+00 -1.000000e+00 0.000000e+00
    outer loop
      vertex   -4.500000e+01 -4.000000e+00 7.000000e+01
      vertex   -4.119012e+01 -4.000000e+00 7.363535e+01
      vertex   -4.139269e+01 -4.000000e+00 7.372616e+01
    endloop
  endfacet
  facet normal -0.000000e+00 -1.000000e+00 0.000000e+00
    outer loop
      vertex   -4.139269e+01 -4.000000e+00 7.372616e+01
      vertex   -4.157903e+01 -4.000000e+00 7.384683e+01
      vertex   -4.500000e+01 -4.000000e+00 7.000000e+01
    endloop
  endfacet
  facet normal 0.000000e+00 -1.000000e+00 0.000000e+00
    outer loop
      vertex   -4.500000e+01 -4.000000e+00 7.000000e+01
      vertex   -4.157903e+01 -4.000000e+00 7.384683e+01
      vertex   -4.174476e+01 -4.000000e+00 7.399452e+01
    endloop
  endfacet
  facet normal 0.000000e+00 -1.000000e+00 0.000000e+00
    outer loop
      vertex   -4.500000e+01 -4.000000e+00 7.000000e+01
      vertex   -4.174476e+01 -4.000000e+00 7.399452e+01
      vertex   -4.188600e+01 -4.000000e+00 7.416579e+01
    endloop
  endfacet
  facet normal -0.000000e+00 -1.000000e+00 0.000000e+00
    outer loop
      vertex   -4.188600e+01 -4.000000e+00 7.416579e+01
      vertex   -4.199944e+01 -4.000000e+00 7.435661e+01
      vertex   -4.500000e+01 -4.000000e+00 7.000000e+01
    endloop
  endfacet
  facet normal 0.000000e+00 -1.000000e+00 0.000000e+00
    outer loop
      vertex   -4.500000e+01 -4.000000e+00 7.000000e+01
      vertex   -4.199944e+01 -4.000000e+00 7.435661e+01
      vertex   -4.208242e+01 -4.000000e+00 7.456251e+01
    endloop
  endfacet
  facet normal 0.000000e+00 -1.000000e+00 0.000000e+00
    outer loop
      vertex   -4.500000e+01 -4.000000e+00 7.000000e+01
      vertex   -4.208242e+01 -4.000000e+00 7.456251e+01
      vertex   -4.213301e+01 -4.000000e+00 7.477866e+01
    endloop
  endfacet
  facet normal 0.000000e+00 -1.000000e+00 0.000000e+00
    outer loop
      vertex   -3.157903e+01 -4.000000e+00 7.615317e+01
      vertex   -3.139269e+01 -4.000000e+00 7.627384e+01
      vertex   -3.570000e+01 -4.000000e+00 9.000000e+01
    endloop
  endfacet
  facet normal 0.000000e+00 -1.000000e+00 0.000000e+00
    outer loop
      vertex   -3.570000e+01 -4.000000e+00 9.000000e+01
      vertex   -3.139269e+01 -4.000000e+00 7.627384e+01
      vertex   -3.119012e+01 -4.000000e+00 7.636465e+01
    endloop
  endfacet
  facet normal 0.000000e+00 -1.000000e+00 0.000000e+00
    outer loop
      vertex   -3.570000e+01 -4.000000e+00 9.000000e+01
      vertex   -3.119012e+01 -4.000000e+00 7.636465e+01
      vertex   -3.097607e+01 -4.000000e+00 7.642348e+01
    endloop
  endfacet
  facet normal 0.000000e+00 -1.000000e+00 0.000000e+00
    outer loop
      vertex   -3.570000e+01 -4.000000e+00 9.000000e+01
      vertex   -3.097607e+01 -4.000000e+00 7.642348e+01
      vertex   -2.640000e+01 -4.000000e+00 8.000000e+01
    endloop
  endfacet
  facet normal 0.000000e+00 -1.000000e+00 0.000000e+00
    outer loop
      vertex   -2.640000e+01 -4.000000e+00 8.000000e+01
      vertex   -3.097607e+01 -4.000000e+00 7.642348e+01
      vertex   -3.075554e+01 -4.000000e+00 7.644894e+01
    endloop
  endfacet
  facet normal 0.000000e+00 -1.000000e+00 0.000000e+00
    outer loop
      vertex   -2.640000e+01 -4.000000e+00 8.000000e+01
      vertex   -3.075554e+01 -4.000000e+00 7.644894e+01
      vertex   -3.053371e+01 -4.000000e+00 7.644043e+01
    endloop
  endfacet
  facet normal 0.000000e+00 -1.000000e+00 0.000000e+00
    outer loop
      vertex   -3.053371e+01 -4.000000e+00 7.644043e+01
      vertex   -3.031578e+01 -4.000000e+00 7.639817e+01
      vertex   -2.640000e+01 -4.000000e+00 8.000000e+01
    endloop
  endfacet
  facet normal 0.000000e+00 -1.000000e+00 0.000000e+00
    outer loop
      vertex   -2.640000e+01 -4.000000e+00 8.000000e+01
      vertex   -3.031578e+01 -4.000000e+00 7.639817e+01
      vertex   -3.010685e+01 -4.000000e+00 7.632313e+01
    endloop
  endfacet
  facet normal 0.000000e+00 -1.000000e+00 0.000000e+00
    outer loop
      vertex   -2.640000e+01 -4.000000e+00 8.000000e+01
      vertex   -3.010685e+01 -4.000000e+00 7.632313e+01
      vertex   -2.991183e+01 -4.000000e+00 7.621708e+01
    endloop
  endfacet
  facet normal 0.000000e+00 -1.000000e+00 0.000000e+00
    outer loop
      vertex   -2.991183e+01 -4.000000e+00 7.621708e+01
      vertex   -2.973528e+01 -4.000000e+00 7.608250e+01
      vertex   -2.640000e+01 -4.000000e+00 8.000000e+01
    endloop
  endfacet
  facet normal 0.000000e+00 -1.000000e+00 0.000000e+00
    outer loop
      vertex   -2.640000e+01 -4.000000e+00 8.000000e+01
      vertex   -2.973528e+01 -4.000000e+00 7.608250e+01
      vertex   -2.958134e+01 -4.000000e+00 7.592255e+01
    endloop
  endfacet
  facet normal 0.000000e+00 -1.000000e+00 0.000000e+00
    outer loop
      vertex   -2.640000e+01 -4.000000e+00 8.000000e+01
      vertex   -2.958134e+01 -4.000000e+00 7.592255e+01
      vertex   -2.945362e+01 -4.000000e+00 7.574098e+01
    endloop
  endfacet
  facet normal 0.000000e+00 -1.000000e+00 0.000000e+00
    outer loop
      vertex   -2.945362e+01 -4.000000e+00 7.574098e+01
      vertex   -2.935512e+01 -4.000000e+00 7.554203e+01
      vertex   -2.640000e+01 -4.000000e+00 8.000000e+01
    endloop
  endfacet
  facet normal 0.000000e+00 -1.000000e+00 0.000000e+00
    outer loop
      vertex   -2.640000e+01 -4.000000e+00 8.000000e+01
      vertex   -2.935512e+01 -4.000000e+00 7.554203e+01
      vertex   -2.928814e+01 -4.000000e+00 7.533039e+01
    endloop
  endfacet
  facet normal 0.000000e+00 -1.000000e+00 0.000000e+00
    outer loop
      vertex   -2.640000e+01 -4.000000e+00 8.000000e+01
      vertex   -2.928814e+01 -4.000000e+00 7.533039e+01
      vertex   -2.925425e+01 -4.000000e+00 7.511100e+01
    endloop
  endfacet
  facet normal 0.000000e+00 -1.000000e+00 -0.000000e+00
    outer loop
      vertex   -2.640000e+01 -4.000000e+00 8.000000e+01
      vertex   -2.925425e+01 -4.000000e+00 7.511100e+01
      vertex   -2.640000e+01 -4.000000e+00 7.000000e+01
    endloop
  endfacet
  facet normal 0.000000e+00 -1.000000e+00 0.000000e+00
    outer loop
      vertex   -2.640000e+01 -4.000000e+00 7.000000e+01
      vertex   -2.925425e+01 -4.000000e+00 7.511100e+01
      vertex   -2.925425e+01 -4.000000e+00 7.488900e+01
    endloop
  endfacet
  facet normal 0.000000e+00 -1.000000e+00 0.000000e+00
    outer loop
      vertex   -2.640000e+01 -4.000000e+00 7.000000e+01
      vertex   -2.925425e+01 -4.000000e+00 7.488900e+01
      vertex   -2.928814e+01 -4.000000e+00 7.466961e+01
    endloop
  endfacet
  facet normal 0.000000e+00 -1.000000e+00 -0.000000e+00
    outer loop
      vertex   -2.928814e+01 -4.000000e+00 7.466961e+01
      vertex   -2.935512e+01 -4.000000e+00 7.445797e+01
      vertex   -2.640000e+01 -4.000000e+00 7.000000e+01
    endloop
  endfacet
  facet normal 0.000000e+00 -1.000000e+00 0.000000e+00
    outer loop
      vertex   -2.640000e+01 -4.000000e+00 7.000000e+01
      vertex   -2.935512e+01 -4.000000e+00 7.445797e+01
      vertex   -2.945362e+01 -4.000000e+00 7.425902e+01
    endloop
  endfacet
  facet normal 0.000000e+00 -1.000000e+00 0.000000e+00
    outer loop
      vertex   -2.640000e+01 -4.000000e+00 7.000000e+01
      vertex   -2.945362e+01 -4.000000e+00 7.425902e+01
      vertex   -2.958134e+01 -4.000000e+00 7.407745e+01
    endloop
  endfacet
  facet normal 0.000000e+00 -1.000000e+00 -0.000000e+00
    outer loop
      vertex   -2.958134e+01 -4.000000e+00 7.407745e+01
      vertex   -2.973528e+01 -4.000000e+00 7.391750e+01
      vertex   -2.640000e+01 -4.000000e+00 7.000000e+01
    endloop
  endfacet
  facet normal 0.000000e+00 -1.000000e+00 0.000000e+00
    outer loop
      vertex   -2.640000e+01 -4.000000e+00 7.000000e+01
      vertex   -2.973528e+01 -4.000000e+00 7.391750e+01
      vertex   -2.991183e+01 -4.000000e+00 7.378292e+01
    endloop
  endfacet
  facet normal 0.000000e+00 -1.000000e+00 0.000000e+00
    outer loop
      vertex   -2.640000e+01 -4.000000e+00 7.000000e+01
      vertex   -2.991183e+01 -4.000000e+00 7.378292e+01
      vertex   -3.010685e+01 -4.000000e+00 7.367687e+01
    endloop
  endfacet
  facet normal 0.000000e+00 -1.000000e+00 -0.000000e+00
    outer loop
      vertex   -3.010685e+01 -4.000000e+00 7.367687e+01
      vertex   -3.031578e+01 -4.000000e+00 7.360183e+01
      vertex   -2.640000e+01 -4.000000e+00 7.000000e+01
    endloop
  endfacet
  facet normal 0.000000e+00 -1.000000e+00 0.000000e+00
    outer loop
      vertex   -2.640000e+01 -4.000000e+00 7.000000e+01
      vertex   -3.031578e+01 -4.000000e+00 7.360183e+01
      vertex   -3.053371e+01 -4.000000e+00 7.355957e+01
    endloop
  endfacet
  facet normal 0.000000e+00 -1.000000e+00 0.000000e+00
    outer loop
      vertex   -2.640000e+01 -4.000000e+00 7.000000e+01
      vertex   -3.053371e+01 -4.000000e+00 7.355957e+01
      vertex   -3.075554e+01 -4.000000e+00 7.355106e+01
    endloop
  endfacet
  facet normal -0.000000e+00 -1.000000e+00 -0.000000e+00
    outer loop
      vertex   -3.075554e+01 -4.000000e+00 7.355106e+01
      vertex   -3.097607e+01 -4.000000e+00 7.357652e+01
      vertex   -2.640000e+01 -4.000000e+00 7.000000e+01
    endloop
  endfacet
  facet normal 0.000000e+00 -1.000000e+00 0.000000e+00
    outer loop
      vertex   -2.640000e+01 -4.000000e+00 7.000000e+01
      vertex   -3.097607e+01 -4.000000e+00 7.357652e+01
      vertex   -3.119012e+01 -4.000000e+00 7.363535e+01
    endloop
  endfacet
  facet normal 0.000000e+00 1.000000e+00 0.000000e+00
    outer loop
      vertex   -4.213301e+01 -3.000000e+00 7.522134e+01
      vertex   -4.215000e+01 -3.000000e+00 7.500000e+01
      vertex   -4.500000e+01 -3.000000e+00 7.000000e+01
    endloop
  endfacet
  facet normal 0.000000e+00 1.000000e+00 0.000000e+00
    outer loop
      vertex   -4.500000e+01 -3.000000e+00 7.000000e+01
      vertex   -4.215000e+01 -3.000000e+00 7.500000e+01
      vertex   -4.213301e+01 -3.000000e+00 7.477866e+01
    endloop
  endfacet
  facet normal 0.000000e+00 1.000000e+00 0.000000e+00
    outer loop
      vertex   -4.500000e+01 -3.000000e+00 7.000000e+01
      vertex   -4.213301e+01 -3.000000e+00 7.477866e+01
      vertex   -4.208242e+01 -3.000000e+00 7.456251e+01
    endloop
  endfacet
  facet normal 0.000000e+00 1.000000e+00 0.000000e+00
    outer loop
      vertex   -4.208242e+01 -3.000000e+00 7.456251e+01
      vertex   -4.199944e+01 -3.000000e+00 7.435661e+01
      vertex   -4.500000e+01 -3.000000e+00 7.000000e+01
    endloop
  endfacet
  facet normal 0.000000e+00 1.000000e+00 0.000000e+00
    outer loop
      vertex   -4.500000e+01 -3.000000e+00 7.000000e+01
      vertex   -4.199944e+01 -3.000000e+00 7.435661e+01
      vertex   -4.188600e+01 -3.000000e+00 7.416579e+01
    endloop
  endfacet
  facet normal 0.000000e+00 1.000000e+00 0.000000e+00
    outer loop
      vertex   -4.500000e+01 -3.000000e+00 7.000000e+01
      vertex   -4.188600e+01 -3.000000e+00 7.416579e+01
      vertex   -4.174476e+01 -3.000000e+00 7.399452e+01
    endloop
  endfacet
  facet normal 0.000000e+00 1.000000e+00 0.000000e+00
    outer loop
      vertex   -4.174476e+01 -3.000000e+00 7.399452e+01
      vertex   -4.157903e+01 -3.000000e+00 7.384683e+01
      vertex   -4.500000e+01 -3.000000e+00 7.000000e+01
    endloop
  endfacet
  facet normal 0.000000e+00 1.000000e+00 0.000000e+00
    outer loop
      vertex   -4.500000e+01 -3.000000e+00 7.000000e+01
      vertex   -4.157903e+01 -3.000000e+00 7.384683e+01
      vertex   -4.139269e+01 -3.000000e+00 7.372616e+01
    endloop
  endfacet
  facet normal 0.000000e+00 1.000000e+00 0.000000e+00
    outer loop
      vertex   -4.500000e+01 -3.000000e+00 7.000000e+01
      vertex   -4.139269e+01 -3.000000e+00 7.372616e+01
      vertex   -4.119012e+01 -3.000000e+00 7.363535e+01
    endloop
  endfacet
  facet normal 0.000000e+00 1.000000e+00 0.000000e+00
    outer loop
      vertex   -4.119012e+01 -3.000000e+00 7.363535e+01
      vertex   -4.097607e+01 -3.000000e+00 7.357652e+01
      vertex   -4.500000e+01 -3.000000e+00 7.000000e+01
    endloop
  endfacet
  facet normal 0.000000e+00 1.000000e+00 0.000000e+00
    outer loop
      vertex   -4.500000e+01 -3.000000e+00 7.000000e+01
      vertex   -4.097607e+01 -3.000000e+00 7.357652e+01
      vertex   -4.075554e+01 -3.000000e+00 7.355106e+01
    endloop
  endfacet
  facet normal 0.000000e+00 1.000000e+00 0.000000e+00
    outer loop
      vertex   -4.500000e+01 -3.000000e+00 7.000000e+01
      vertex   -4.075554e+01 -3.000000e+00 7.355106e+01
      vertex   -4.053371e+01 -3.000000e+00 7.355957e+01
    endloop
  endfacet
  facet normal -0.000000e+00 1.000000e+00 0.000000e+00
    outer loop
      vertex   -4.053371e+01 -3.000000e+00 7.355957e+01
      vertex   -4.031578e+01 -3.000000e+00 7.360183e+01
      vertex   -4.500000e+01 -3.000000e+00 7.000000e+01
    endloop
  endfacet
  facet normal 0.000000e+00 1.000000e+00 0.000000e+00
    outer loop
      vertex   -4.500000e+01 -3.000000e+00 7.000000e+01
      vertex   -4.031578e+01 -3.000000e+00 7.360183e+01
      vertex   -4.010685e+01 -3.000000e+00 7.367687e+01
    endloop
  endfacet
  facet normal 0.000000e+00 1.000000e+00 0.000000e+00
    outer loop
      vertex   -4.500000e+01 -3.000000e+00 7.000000e+01
      vertex   -4.010685e+01 -3.000000e+00 7.367687e+01
      vertex   -3.119012e+01 -3.000000e+00 7.363535e+01
    endloop
  endfacet
  facet normal 0.000000e+00 1.000000e+00 0.000000e+00
    outer loop
      vertex   -3.119012e+01 -3.000000e+00 7.363535e+01
      vertex   -4.010685e+01 -3.000000e+00 7.367687e+01
      vertex   -3.139269e+01 -3.000000e+00 7.372616e+01
    endloop
  endfacet
  facet normal 0.000000e+00 1.000000e+00 0.000000e+00
    outer loop
      vertex   -3.139269e+01 -3.000000e+00 7.372616e+01
      vertex   -4.010685e+01 -3.000000e+00 7.367687e+01
      vertex   -3.991183e+01 -3.000000e+00 7.378292e+01
    endloop
  endfacet
  facet normal 0.000000e+00 1.000000e+00 0.000000e+00
    outer loop
      vertex   -3.139269e+01 -3.000000e+00 7.372616e+01
      vertex   -3.991183e+01 -3.000000e+00 7.378292e+01
      vertex   -3.157903e+01 -3.000000e+00 7.384683e+01
    endloop
  endfacet
  facet normal 0.000000e+00 1.000000e+00 0.000000e+00
    outer loop
      vertex   -3.157903e+01 -3.000000e+00 7.384683e+01
      vertex   -3.991183e+01 -3.000000e+00 7.378292e+01
      vertex   -3.973528e+01 -3.000000e+00 7.391750e+01
    endloop
  endfacet
  facet normal 0.000000e+00 1.000000e+00 0.000000e+00
    outer loop
      vertex   -3.157903e+01 -3.000000e+00 7.384683e+01
      vertex   -3.973528e+01 -3.000000e+00 7.391750e+01
      vertex   -3.174476e+01 -3.000000e+00 7.399452e+01
    endloop
  endfacet
  facet normal 0.000000e+00 1.000000e+00 0.000000e+00
    outer loop
      vertex   -3.174476e+01 -3.000000e+00 7.399452e+01
      vertex   -3.973528e+01 -3.000000e+00 7.391750e+01
      vertex   -3.958134e+01 -3.000000e+00 7.407745e+01
    endloop
  endfacet
  facet normal 0.000000e+00 1.000000e+00 0.000000e+00
    outer loop
      vertex   -3.174476e+01 -3.000000e+00 7.399452e+01
      vertex   -3.958134e+01 -3.000000e+00 7.407745e+01
      vertex   -3.188600e+01 -3.000000e+00 7.416579e+01
    endloop
  endfacet
  facet normal 0.000000e+00 1.000000e+00 0.000000e+00
    outer loop
      vertex   -3.188600e+01 -3.000000e+00 7.416579e+01
      vertex   -3.958134e+01 -3.000000e+00 7.407745e+01
      vertex   -3.945362e+01 -3.000000e+00 7.425902e+01
    endloop
  endfacet
  facet normal 0.000000e+00 1.000000e+00 0.000000e+00
    outer loop
      vertex   -3.188600e+01 -3.000000e+00 7.416579e+01
      vertex   -3.945362e+01 -3.000000e+00 7.425902e+01
      vertex   -3.199944e+01 -3.000000e+00 7.435661e+01
    endloop
  endfacet
  facet normal 0.000000e+00 1.000000e+00 0.000000e+00
    outer loop
      vertex   -3.199944e+01 -3.000000e+00 7.435661e+01
      vertex   -3.945362e+01 -3.000000e+00 7.425902e+01
      vertex   -3.935512e+01 -3.000000e+00 7.445797e+01
    endloop
  endfacet
  facet normal 0.000000e+00 1.000000e+00 0.000000e+00
    outer loop
      vertex   -3.199944e+01 -3.000000e+00 7.435661e+01
      vertex   -3.935512e+01 -3.000000e+00 7.445797e+01
      vertex   -3.208242e+01 -3.000000e+00 7.456251e+01
    endloop
  endfacet
  facet normal 0.000000e+00 1.000000e+00 0.000000e+00
    outer loop
      vertex   -3.208242e+01 -3.000000e+00 7.456251e+01
      vertex   -3.935512e+01 -3.000000e+00 7.445797e+01
      vertex   -3.928814e+01 -3.000000e+00 7.466961e+01
    endloop
  endfacet
  facet normal 0.000000e+00 1.000000e+00 0.000000e+00
    outer loop
      vertex   -3.208242e+01 -3.000000e+00 7.456251e+01
      vertex   -3.928814e+01 -3.000000e+00 7.466961e+01
      vertex   -3.213301e+01 -3.000000e+00 7.477866e+01
    endloop
  endfacet
  facet normal 0.000000e+00 1.000000e+00 0.000000e+00
    outer loop
      vertex   -3.213301e+01 -3.000000e+00 7.477866e+01
      vertex   -3.928814e+01 -3.000000e+00 7.466961e+01
      vertex   -3.925425e+01 -3.000000e+00 7.488900e+01
    endloop
  endfacet
  facet normal 0.000000e+00 1.000000e+00 0.000000e+00
    outer loop
      vertex   -3.213301e+01 -3.000000e+00 7.477866e+01
      vertex   -3.925425e+01 -3.000000e+00 7.488900e+01
      vertex   -3.215000e+01 -3.000000e+00 7.500000e+01
    endloop
  endfacet
  facet normal 0.000000e+00 1.000000e+00 0.000000e+00
    outer loop
      vertex   -3.215000e+01 -3.000000e+00 7.500000e+01
      vertex   -3.925425e+01 -3.000000e+00 7.488900e+01
      vertex   -3.925425e+01 -3.000000e+00 7.511100e+01
    endloop
  endfacet
  facet normal 0.000000e+00 1.000000e+00 -0.000000e+00
    outer loop
      vertex   -3.215000e+01 -3.000000e+00 7.500000e+01
      vertex   -3.925425e+01 -3.000000e+00 7.511100e+01
      vertex   -3.213301e+01 -3.000000e+00 7.522134e+01
    endloop
  endfacet
  facet normal 0.000000e+00 1.000000e+00 0.000000e+00
    outer loop
      vertex   -3.213301e+01 -3.000000e+00 7.522134e+01
      vertex   -3.925425e+01 -3.000000e+00 7.511100e+01
      vertex   -3.928814e+01 -3.000000e+00 7.533039e+01
    endloop
  endfacet
  facet normal 0.000000e+00 1.000000e+00 -0.000000e+00
    outer loop
      vertex   -3.213301e+01 -3.000000e+00 7.522134e+01
      vertex   -3.928814e+01 -3.000000e+00 7.533039e+01
      vertex   -3.208242e+01 -3.000000e+00 7.543749e+01
    endloop
  endfacet
  facet normal 0.000000e+00 1.000000e+00 0.000000e+00
    outer loop
      vertex   -3.208242e+01 -3.000000e+00 7.543749e+01
      vertex   -3.928814e+01 -3.000000e+00 7.533039e+01
      vertex   -3.935512e+01 -3.000000e+00 7.554203e+01
    endloop
  endfacet
  facet normal 0.000000e+00 1.000000e+00 -0.000000e+00
    outer loop
      vertex   -3.208242e+01 -3.000000e+00 7.543749e+01
      vertex   -3.935512e+01 -3.000000e+00 7.554203e+01
      vertex   -3.199944e+01 -3.000000e+00 7.564339e+01
    endloop
  endfacet
  facet normal 0.000000e+00 1.000000e+00 0.000000e+00
    outer loop
      vertex   -3.199944e+01 -3.000000e+00 7.564339e+01
      vertex   -3.935512e+01 -3.000000e+00 7.554203e+01
      vertex   -3.945362e+01 -3.000000e+00 7.574098e+01
    endloop
  endfacet
  facet normal 0.000000e+00 1.000000e+00 -0.000000e+00
    outer loop
      vertex   -3.199944e+01 -3.000000e+00 7.564339e+01
      vertex   -3.945362e+01 -3.000000e+00 7.574098e+01
      vertex   -3.188600e+01 -3.000000e+00 7.583421e+01
    endloop
  endfacet
  facet normal 0.000000e+00 1.000000e+00 0.000000e+00
    outer loop
      vertex   -3.188600e+01 -3.000000e+00 7.583421e+01
      vertex   -3.945362e+01 -3.000000e+00 7.574098e+01
      vertex   -3.958134e+01 -3.000000e+00 7.592255e+01
    endloop
  endfacet
  facet normal 0.000000e+00 1.000000e+00 -0.000000e+00
    outer loop
      vertex   -3.188600e+01 -3.000000e+00 7.583421e+01
      vertex   -3.958134e+01 -3.000000e+00 7.592255e+01
      vertex   -3.174476e+01 -3.000000e+00 7.600548e+01
    endloop
  endfacet
  facet normal 0.000000e+00 1.000000e+00 0.000000e+00
    outer loop
      vertex   -3.174476e+01 -3.000000e+00 7.600548e+01
      vertex   -3.958134e+01 -3.000000e+00 7.592255e+01
      vertex   -3.973528e+01 -3.000000e+00 7.608250e+01
    endloop
  endfacet
  facet normal 0.000000e+00 1.000000e+00 -0.000000e+00
    outer loop
      vertex   -3.174476e+01 -3.000000e+00 7.600548e+01
      vertex   -3.973528e+01 -3.000000e+00 7.608250e+01
      vertex   -3.157903e+01 -3.000000e+00 7.615317e+01
    endloop
  endfacet
  facet normal 0.000000e+00 1.000000e+00 0.000000e+00
    outer loop
      vertex   -3.157903e+01 -3.000000e+00 7.615317e+01
      vertex   -3.973528e+01 -3.000000e+00 7.608250e+01
      vertex   -3.570000e+01 -3.000000e+00 9.000000e+01
    endloop
  endfacet
  facet normal 0.000000e+00 1.000000e+00 -0.000000e+00
    outer loop
      vertex   -3.157903e+01 -3.000000e+00 7.615317e+01
      vertex   -3.570000e+01 -3.000000e+00 9.000000e+01
      vertex   -3.139269e+01 -3.000000e+00 7.627384e+01
    endloop
  endfacet
  facet normal 0.000000e+00 1.000000e+00 -0.000000e+00
    outer loop
      vertex   -3.139269e+01 -3.000000e+00 7.627384e+01
      vertex   -3.570000e+01 -3.000000e+00 9.000000e+01
      vertex   -3.119012e+01 -3.000000e+00 7.636465e+01
    endloop
  endfacet
  facet normal 0.000000e+00 1.000000e+00 -0.000000e+00
    outer loop
      vertex   -3.119012e+01 -3.000000e+00 7.636465e+01
      vertex   -3.570000e+01 -3.000000e+00 9.000000e+01
      vertex   -3.097607e+01 -3.000000e+00 7.642348e+01
    endloop
  endfacet
  facet normal 0.000000e+00 1.000000e+00 -0.000000e+00
    outer loop
      vertex   -3.097607e+01 -3.000000e+00 7.642348e+01
      vertex   -3.570000e+01 -3.000000e+00 9.000000e+01
      vertex   -2.640000e+01 -3.000000e+00 8.000000e+01
    endloop
  endfacet
  facet normal 0.000000e+00 1.000000e+00 0.000000e+00
    outer loop
      vertex   -3.097607e+01 -3.000000e+00 7.642348e+01
      vertex   -2.640000e+01 -3.000000e+00 8.000000e+01
      vertex   -3.075554e+01 -3.000000e+00 7.644894e+01
    endloop
  endfacet
  facet normal -0.000000e+00 1.000000e+00 0.000000e+00
    outer loop
      vertex   -3.075554e+01 -3.000000e+00 7.644894e+01
      vertex   -2.640000e+01 -3.000000e+00 8.000000e+01
      vertex   -3.053371e+01 -3.000000e+00 7.644043e+01
    endloop
  endfacet
  facet normal -0.000000e+00 1.000000e+00 0.000000e+00
    outer loop
      vertex   -3.053371e+01 -3.000000e+00 7.644043e+01
      vertex   -2.640000e+01 -3.000000e+00 8.000000e+01
      vertex   -3.031578e+01 -3.000000e+00 7.639817e+01
    endloop
  endfacet
  facet normal -0.000000e+00 1.000000e+00 0.000000e+00
    outer loop
      vertex   -3.031578e+01 -3.000000e+00 7.639817e+01
      vertex   -2.640000e+01 -3.000000e+00 8.000000e+01
      vertex   -3.010685e+01 -3.000000e+00 7.632313e+01
    endloop
  endfacet
  facet normal -0.000000e+00 1.000000e+00 0.000000e+00
    outer loop
      vertex   -3.010685e+01 -3.000000e+00 7.632313e+01
      vertex   -2.640000e+01 -3.000000e+00 8.000000e+01
      vertex   -2.991183e+01 -3.000000e+00 7.621708e+01
    endloop
  endfacet
  facet normal -0.000000e+00 1.000000e+00 0.000000e+00
    outer loop
      vertex   -2.991183e+01 -3.000000e+00 7.621708e+01
      vertex   -2.640000e+01 -3.000000e+00 8.000000e+01
      vertex   -2.973528e+01 -3.000000e+00 7.608250e+01
    endloop
  endfacet
  facet normal -0.000000e+00 1.000000e+00 0.000000e+00
    outer loop
      vertex   -2.973528e+01 -3.000000e+00 7.608250e+01
      vertex   -2.640000e+01 -3.000000e+00 8.000000e+01
      vertex   -2.958134e+01 -3.000000e+00 7.592255e+01
    endloop
  endfacet
  facet normal -0.000000e+00 1.000000e+00 0.000000e+00
    outer loop
      vertex   -2.958134e+01 -3.000000e+00 7.592255e+01
      vertex   -2.640000e+01 -3.000000e+00 8.000000e+01
      vertex   -2.945362e+01 -3.000000e+00 7.574098e+01
    endloop
  endfacet
  facet normal -0.000000e+00 1.000000e+00 0.000000e+00
    outer loop
      vertex   -2.945362e+01 -3.000000e+00 7.574098e+01
      vertex   -2.640000e+01 -3.000000e+00 8.000000e+01
      vertex   -2.935512e+01 -3.000000e+00 7.554203e+01
    endloop
  endfacet
  facet normal -0.000000e+00 1.000000e+00 0.000000e+00
    outer loop
      vertex   -2.935512e+01 -3.000000e+00 7.554203e+01
      vertex   -2.640000e+01 -3.000000e+00 8.000000e+01
      vertex   -2.928814e+01 -3.000000e+00 7.533039e+01
    endloop
  endfacet
  facet normal -0.000000e+00 1.000000e+00 0.000000e+00
    outer loop
      vertex   -2.928814e+01 -3.000000e+00 7.533039e+01
      vertex   -2.640000e+01 -3.000000e+00 8.000000e+01
      vertex   -2.925425e+01 -3.000000e+00 7.511100e+01
    endloop
  endfacet
  facet normal -0.000000e+00 1.000000e+00 0.000000e+00
    outer loop
      vertex   -2.925425e+01 -3.000000e+00 7.511100e+01
      vertex   -2.640000e+01 -3.000000e+00 8.000000e+01
      vertex   -2.640000e+01 -3.000000e+00 7.000000e+01
    endloop
  endfacet
  facet normal 0.000000e+00 1.000000e+00 0.000000e+00
    outer loop
      vertex   -2.925425e+01 -3.000000e+00 7.511100e+01
      vertex   -2.640000e+01 -3.000000e+00 7.000000e+01
      vertex   -2.925425e+01 -3.000000e+00 7.488900e+01
    endloop
  endfacet
  facet normal 0.000000e+00 1.000000e+00 0.000000e+00
    outer loop
      vertex   -2.925425e+01 -3.000000e+00 7.488900e+01
      vertex   -2.640000e+01 -3.000000e+00 7.000000e+01
      vertex   -2.928814e+01 -3.000000e+00 7.466961e+01
    endloop
  endfacet
  facet normal 0.000000e+00 1.000000e+00 0.000000e+00
    outer loop
      vertex   -2.928814e+01 -3.000000e+00 7.466961e+01
      vertex   -2.640000e+01 -3.000000e+00 7.000000e+01
      vertex   -2.935512e+01 -3.000000e+00 7.445797e+01
    endloop
  endfacet
  facet normal 0.000000e+00 1.000000e+00 0.000000e+00
    outer loop
      vertex   -2.935512e+01 -3.000000e+00 7.445797e+01
      vertex   -2.640000e+01 -3.000000e+00 7.000000e+01
      vertex   -2.945362e+01 -3.000000e+00 7.425902e+01
    endloop
  endfacet
  facet normal 0.000000e+00 1.000000e+00 0.000000e+00
    outer loop
      vertex   -2.945362e+01 -3.000000e+00 7.425902e+01
      vertex   -2.640000e+01 -3.000000e+00 7.000000e+01
      vertex   -2.958134e+01 -3.000000e+00 7.407745e+01
    endloop
  endfacet
  facet normal 0.000000e+00 1.000000e+00 0.000000e+00
    outer loop
      vertex   -2.958134e+01 -3.000000e+00 7.407745e+01
      vertex   -2.640000e+01 -3.000000e+00 7.000000e+01
      vertex   -2.973528e+01 -3.000000e+00 7.391750e+01
    endloop
  endfacet
  facet normal 0.000000e+00 1.000000e+00 0.000000e+00
    outer loop
      vertex   -2.973528e+01 -3.000000e+00 7.391750e+01
      vertex   -2.640000e+01 -3.000000e+00 7.000000e+01
      vertex   -2.991183e+01 -3.000000e+00 7.378292e+01
    endloop
  endfacet
  facet normal 0.000000e+00 1.000000e+00 0.000000e+00
    outer loop
      vertex   -2.991183e+01 -3.000000e+00 7.378292e+01
      vertex   -2.640000e+01 -3.000000e+00 7.000000e+01
      vertex   -3.010685e+01 -3.000000e+00 7.367687e+01
    endloop
  endfacet
  facet normal 0.000000e+00 1.000000e+00 0.000000e+00
    outer loop
      vertex   -3.010685e+01 -3.000000e+00 7.367687e+01
      vertex   -2.640000e+01 -3.000000e+00 7.000000e+01
      vertex   -3.031578e+01 -3.000000e+00 7.360183e+01
    endloop
  endfacet
  facet normal 0.000000e+00 1.000000e+00 0.000000e+00
    outer loop
      vertex   -3.031578e+01 -3.000000e+00 7.360183e+01
      vertex   -2.640000e+01 -3.000000e+00 7.000000e+01
      vertex   -3.053371e+01 -3.000000e+00 7.355957e+01
    endloop
  endfacet
  facet normal 0.000000e+00 1.000000e+00 0.000000e+00
    outer loop
      vertex   -3.053371e+01 -3.000000e+00 7.355957e+01
      vertex   -2.640000e+01 -3.000000e+00 7.000000e+01
      vertex   -3.075554e+01 -3.000000e+00 7.355106e+01
    endloop
  endfacet
  facet normal 0.000000e+00 1.000000e+00 0.000000e+00
    outer loop
      vertex   -3.075554e+01 -3.000000e+00 7.355106e+01
      vertex   -2.640000e+01 -3.000000e+00 7.000000e+01
      vertex   -3.097607e+01 -3.000000e+00 7.357652e+01
    endloop
  endfacet
  facet normal 0.000000e+00 1.000000e+00 0.000000e+00
    outer loop
      vertex   -3.097607e+01 -3.000000e+00 7.357652e+01
      vertex   -2.640000e+01 -3.000000e+00 7.000000e+01
      vertex   -3.119012e+01 -3.000000e+00 7.363535e+01
    endloop
  endfacet
  facet normal 0.000000e+00 1.000000e+00 0.000000e+00
    outer loop
      vertex   -3.119012e+01 -3.000000e+00 7.363535e+01
      vertex   -2.640000e+01 -3.000000e+00 7.000000e+01
      vertex   -4.500000e+01 -3.000000e+00 7.000000e+01
    endloop
  endfacet
  facet normal 0.000000e+00 1.000000e+00 -0.000000e+00
    outer loop
      vertex   -3.973528e+01 -3.000000e+00 7.608250e+01
      vertex   -3.991183e+01 -3.000000e+00 7.621708e+01
      vertex   -3.570000e+01 -3.000000e+00 9.000000e+01
    endloop
  endfacet
  facet normal 0.000000e+00 1.000000e+00 0.000000e+00
    outer loop
      vertex   -3.570000e+01 -3.000000e+00 9.000000e+01
      vertex   -3.991183e+01 -3.000000e+00 7.621708e+01
      vertex   -4.010685e+01 -3.000000e+00 7.632313e+01
    endloop
  endfacet
  facet normal 0.000000e+00 1.000000e+00 0.000000e+00
    outer loop
      vertex   -3.570000e+01 -3.000000e+00 9.000000e+01
      vertex   -4.010685e+01 -3.000000e+00 7.632313e+01
      vertex   -4.031578e+01 -3.000000e+00 7.639817e+01
    endloop
  endfacet
  facet normal 0.000000e+00 1.000000e+00 -0.000000e+00
    outer loop
      vertex   -4.031578e+01 -3.000000e+00 7.639817e+01
      vertex   -4.053371e+01 -3.000000e+00 7.644043e+01
      vertex   -3.570000e+01 -3.000000e+00 9.000000e+01
    endloop
  endfacet
  facet normal 0.000000e+00 1.000000e+00 0.000000e+00
    outer loop
      vertex   -3.570000e+01 -3.000000e+00 9.000000e+01
      vertex   -4.053371e+01 -3.000000e+00 7.644043e+01
      vertex   -4.500000e+01 -3.000000e+00 9.000000e+01
    endloop
  endfacet
  facet normal 0.000000e+00 1.000000e+00 0.000000e+00
    outer loop
      vertex   -4.500000e+01 -3.000000e+00 9.000000e+01
      vertex   -4.053371e+01 -3.000000e+00 7.644043e+01
      vertex   -4.075554e+01 -3.000000e+00 7.644894e+01
    endloop
  endfacet
  facet normal 0.000000e+00 1.000000e+00 0.000000e+00
    outer loop
      vertex   -4.500000e+01 -3.000000e+00 9.000000e+01
      vertex   -4.075554e+01 -3.000000e+00 7.644894e+01
      vertex   -4.097607e+01 -3.000000e+00 7.642348e+01
    endloop
  endfacet
  facet normal 0.000000e+00 1.000000e+00 0.000000e+00
    outer loop
      vertex   -4.097607e+01 -3.000000e+00 7.642348e+01
      vertex   -4.119012e+01 -3.000000e+00 7.636465e+01
      vertex   -4.500000e+01 -3.000000e+00 9.000000e+01
    endloop
  endfacet
  facet normal 0.000000e+00 1.000000e+00 0.000000e+00
    outer loop
      vertex   -4.500000e+01 -3.000000e+00 9.000000e+01
      vertex   -4.119012e+01 -3.000000e+00 7.636465e+01
      vertex   -4.139269e+01 -3.000000e+00 7.627384e+01
    endloop
  endfacet
  facet normal 0.000000e+00 1.000000e+00 0.000000e+00
    outer loop
      vertex   -4.500000e+01 -3.000000e+00 9.000000e+01
      vertex   -4.139269e+01 -3.000000e+00 7.627384e+01
      vertex   -4.157903e+01 -3.000000e+00 7.615317e+01
    endloop
  endfacet
  facet normal 0.000000e+00 1.000000e+00 0.000000e+00
    outer loop
      vertex   -4.157903e+01 -3.000000e+00 7.615317e+01
      vertex   -4.174476e+01 -3.000000e+00 7.600548e+01
      vertex   -4.500000e+01 -3.000000e+00 9.000000e+01
    endloop
  endfacet
  facet normal 0.000000e+00 1.000000e+00 0.000000e+00
    outer loop
      vertex   -4.500000e+01 -3.000000e+00 9.000000e+01
      vertex   -4.174476e+01 -3.000000e+00 7.600548e+01
      vertex   -4.188600e+01 -3.000000e+00 7.583421e+01
    endloop
  endfacet
  facet normal 0.000000e+00 1.000000e+00 0.000000e+00
    outer loop
      vertex   -4.500000e+01 -3.000000e+00 9.000000e+01
      vertex   -4.188600e+01 -3.000000e+00 7.583421e+01
      vertex   -4.199944e+01 -3.000000e+00 7.564339e+01
    endloop
  endfacet
  facet normal 0.000000e+00 1.000000e+00 0.000000e+00
    outer loop
      vertex   -4.199944e+01 -3.000000e+00 7.564339e+01
      vertex   -4.208242e+01 -3.000000e+00 7.543749e+01
      vertex   -4.500000e+01 -3.000000e+00 9.000000e+01
    endloop
  endfacet
  facet normal 0.000000e+00 1.000000e+00 0.000000e+00
    outer loop
      vertex   -4.500000e+01 -3.000000e+00 9.000000e+01
      vertex   -4.208242e+01 -3.000000e+00 7.543749e+01
      vertex   -4.500000e+01 -3.000000e+00 7.000000e+01
    endloop
  endfacet
  facet normal 0.000000e+00 1.000000e+00 0.000000e+00
    outer loop
      vertex   -4.500000e+01 -3.000000e+00 7.000000e+01
      vertex   -4.208242e+01 -3.000000e+00 7.543749e+01
      vertex   -4.213301e+01 -3.000000e+00 7.522134e+01
    endloop
  endfacet
endsolid
